<?xml version="1.0" standalone="no"?>
<!DOCTYPE svg PUBLIC "-//W3C//DTD SVG 1.1//EN" "http://www.w3.org/Graphics/SVG/1.1/DTD/svg11.dtd" >
<svg xmlns="http://www.w3.org/2000/svg">
<metadata></metadata>
<defs>
<font id="liberatorlight" horiz-adv-x="911" >
<font-face units-per-em="2048" ascent="1536" descent="-512" />
<missing-glyph horiz-adv-x="491" />
<glyph unicode="&#xfb01;" horiz-adv-x="1392" d="M115 29v1372q0 29 28 29h744q10 0 19 -8.5t9 -20.5v-133q0 -10 -3 -19.5t-13 -9.5h-594v-428h490q10 0 19 -8t9 -21v-133q0 -12 -9 -20t-19 -8h-490v-592q0 -29 -29 -29h-133q-29 0 -28 29zM1088 29v1370q0 12 8 21.5t20 9.5h133q12 0 20.5 -9.5t8.5 -21.5v-1370 q0 -29 -29 -29h-133q-29 0 -28 29z" />
<glyph unicode="&#xfb02;" horiz-adv-x="1953" d="M115 29v1372q0 29 28 29h744q10 0 19 -8.5t9 -20.5v-133q0 -10 -3 -19.5t-13 -9.5h-594v-428h490q10 0 19 -8t9 -21v-133q0 -12 -9 -20t-19 -8h-490v-592q0 -29 -29 -29h-133q-29 0 -28 29zM1088 29v1376q0 10 9 17.5t19 7.5h133q10 0 19.5 -7.5t9.5 -17.5v-1215h602 q29 0 29 -28v-133q0 -29 -29 -29h-764q-29 0 -28 29z" />
<glyph horiz-adv-x="0" />
<glyph unicode="&#xd;" horiz-adv-x="491" />
<glyph horiz-adv-x="0" />
<glyph horiz-adv-x="0" />
<glyph unicode=" "  horiz-adv-x="491" />
<glyph unicode="&#x09;" horiz-adv-x="491" />
<glyph unicode="&#xa0;" horiz-adv-x="491" />
<glyph unicode="!" horiz-adv-x="397" d="M102 25v168q0 29 29 28h135q29 0 29 -28v-168q0 -10 -9.5 -17.5t-19.5 -7.5h-135q-10 0 -19.5 7t-9.5 18zM102 489v891q0 29 29 29h135q29 0 29 -29v-891q0 -10 -9.5 -17t-19.5 -7h-135q-10 0 -19.5 7t-9.5 17z" />
<glyph unicode="&#x22;" horiz-adv-x="661" d="M72 1128v279q0 20 24 20h140q29 0 28 -28v-279q0 -8 -7 -15t-17 -5h-140q-29 0 -28 28zM397 1128v279q0 20 25 20h139q29 0 29 -28v-279q0 -8 -7.5 -15t-17.5 -5h-139q-29 0 -29 28z" />
<glyph unicode="#" horiz-adv-x="1505" d="M72 412v135q0 25 24 28h242l100 279h-342q-25 4 -24 29v135q0 10 7 19.5t17 9.5h412l127 354q10 29 31 29h139q20 0 25.5 -10.5t0.5 -26.5l-122 -346h331l127 354q10 29 31 29h139q16 0 24.5 -10.5t2.5 -26.5l-123 -346h164q10 0 19.5 -8.5t9.5 -20.5v-135 q0 -12 -9.5 -20.5t-19.5 -8.5h-231l-99 -279h330q10 0 19.5 -8t9.5 -20v-135q0 -12 -9.5 -20.5t-19.5 -8.5h-397l-125 -354q-4 -10 -14.5 -19.5t-22.5 -9.5h-148q-18 0 -25 9t-3 20l131 354h-326l-125 -354q-4 -10 -14 -19.5t-23 -9.5h-147q-18 0 -25.5 9t-3.5 20l131 354 h-172q-25 4 -24 29zM543 575h327l101 279h-330z" />
<glyph unicode="$" horiz-adv-x="1007" d="M100 295v162q0 12 8.5 21t20.5 9h135q12 0 20.5 -9t8.5 -21v-158h375l41 39q6 6 6 18v213q0 8 -10 19l-37 35h-383q-6 0 -19.5 3t-27.5 17l-115 117q-14 14 -18.5 27.5t-4.5 23.5v330q0 31 23 53l115 117q12 12 23 16t30 4h135v80q0 12 9 21.5t22 9.5h133q12 0 21.5 -9.5 t9.5 -21.5v-80h96q16 0 28.5 -4t24.5 -16l115 -115q20 -20 21 -33.5t1 -17.5v-176q0 -29 -28 -29h-136q-29 0 -28 29v170h-375l-41 -39q-6 -6 -6 -19v-209q0 -10 6 -16l43 -41h375q12 0 25.5 -4t27.5 -18l115 -115q12 -12 17 -22.5t5 -30.5v-330q0 -8 -2 -16q-4 -20 -20 -37 l-115 -115q-10 -10 -21.5 -15.5t-31.5 -5.5h-96v-77q0 -12 -9.5 -20.5t-21.5 -8.5h-133q-12 0 -21.5 8t-9.5 21v77h-135q-16 0 -28.5 4.5t-24.5 16.5l-115 115q-23 23 -23 53z" />
<glyph unicode="%" horiz-adv-x="1071" d="M74 29q4 10 12 22l692 1350q6 12 12.5 20.5t16.5 8.5h162q10 0 21 -9.5t7 -19.5l-688 -1372q-6 -10 -16 -19.5t-23 -9.5h-166q-12 0 -23 9t-7 20zM80 1221v180q0 29 29 29h165q12 0 21.5 -8.5t9.5 -20.5v-180q0 -10 -9 -17.5t-22 -7.5h-165q-10 0 -19.5 7t-9.5 18z M762 31v180q0 12 9 20.5t22 8.5h165q12 0 21.5 -8.5t9.5 -20.5v-180q0 -10 -9 -17.5t-22 -7.5h-165q-10 0 -20.5 7t-10.5 18z" />
<glyph unicode="&#x26;" horiz-adv-x="1185" d="M98 193v407q0 20 23 39l61 59l-61 62q-10 10 -16.5 19t-6.5 34v422q0 18 6.5 32.5t16.5 24.5l115 115q16 16 34 20q8 2 19 3h514q10 0 24.5 -4.5t28.5 -18.5l117 -115q20 -20 20 -53v-215q0 -10 -8 -19.5t-20 -9.5h-138q-10 0 -19 9.5t-9 19.5v211h-451q-10 0 -14 -6 l-33 -35q-8 -10 -8 -20v-318q0 -8 8 -14l29 -29h790q29 0 29 -29v-133q0 -29 -29 -28h-127v-433q0 -16 -4 -28t-16 -25l-117 -117q-20 -20 -53 -20h-514q-18 0 -29.5 4t-23.5 16l-115 117q-23 23 -23 56zM293 258q0 -27 8 -35l27 -28h471v428h-451q-8 0 -14 -7l-33 -34 q-8 -10 -8 -19v-305z" />
<glyph unicode="'" horiz-adv-x="335" d="M72 1128v279q0 20 24 20h140q29 0 28 -28v-279q0 -20 -24 -20h-140q-29 0 -28 28z" />
<glyph unicode="(" horiz-adv-x="591" d="M117 190v1051q0 12 4 25.5t18 27.5l115 115q20 20 53 21h223v-193h-159q-14 0 -21 -6l-35 -33q-6 -6 -6 -12v-950q0 -8 6 -15l29 -28h186v-193h-223q-18 0 -29.5 5t-23.5 18l-115 114q-23 23 -22 53z" />
<glyph unicode=")" horiz-adv-x="591" d="M61 0v193h187l28 28q6 6 7 15v950q0 6 -7 12l-34 33q-6 6 -21 6h-160v193h224q33 0 53 -21l115 -115q14 -14 18 -27.5t4 -25.5v-1051q0 -31 -22 -53l-115 -114q-12 -12 -23.5 -17.5t-29.5 -5.5h-224z" />
<glyph unicode="*" horiz-adv-x="753" d="M76 971q-8 12 2 20l178 113l-176 113q-12 6 -4 22l74 102q6 14 20 5l137 -109l-10 174q0 16 16 16h127q14 0 15 -14l-11 -176l138 109q14 10 22 -5l74 -102q8 -16 -4 -22l-176 -113l178 -113q10 -8 2 -20l-74 -105q-4 -4 -10 -6t-10 2l-140 109l11 -176q0 -12 -15 -13 h-127q-16 0 -16 13l10 176l-139 -109q-10 -8 -18 4z" />
<glyph unicode="+" horiz-adv-x="978" d="M72 670v135q0 10 7 19.5t17 9.5h297v292q0 12 9.5 20.5t19.5 8.5h133q29 0 29 -29v-292h293q12 0 21 -8.5t9 -20.5v-135q0 -12 -9 -20.5t-21 -8.5h-293v-297q0 -10 -9.5 -18.5t-19.5 -8.5h-133q-10 0 -19.5 8.5t-9.5 18.5v297h-297q-10 0 -17 9t-7 20z" />
<glyph unicode="," horiz-adv-x="395" d="M102 -186v376q0 29 29 29h133q29 0 29 -29v-268q0 -8 -8.5 -15t-18.5 -16l-127 -96q-16 -10 -26.5 -1t-10.5 20z" />
<glyph unicode="-" d="M72 670v135q0 10 7 19.5t17 9.5h713q12 0 21.5 -8.5t9.5 -20.5v-135q0 -12 -9.5 -20.5t-21.5 -8.5h-713q-10 0 -17 9t-7 20z" />
<glyph unicode="." horiz-adv-x="395" d="M102 25v165q0 29 29 29h133q29 0 29 -29v-165q0 -10 -9.5 -17.5t-19.5 -7.5h-133q-10 0 -19.5 7t-9.5 18z" />
<glyph unicode="/" horiz-adv-x="1009" d="M47 29l705 1380q4 10 10 15.5t20 5.5h156q18 0 25.5 -9.5t3.5 -19.5l-697 -1381q-4 -10 -10 -15t-20 -5h-164q-18 0 -25.5 9t-3.5 20z" />
<glyph unicode="0" horiz-adv-x="1118" d="M104 190v1049q0 35 21 53l117 115q16 16 34 20q8 2 19 3h528q8 0 17 -3q20 -4 37 -20l116 -115q16 -16 18.5 -29.5t2.5 -31.5v-1041q0 -31 -23 -53l-114 -117q-10 -10 -20.5 -15t-33.5 -5h-528q-10 -2 -19 0q-18 4 -34 20l-117 117q-12 12 -16.5 24.5t-4.5 28.5zM299 238 q0 -10 6 -15l29 -28h450l29 28q6 4 6 15v931q0 16 -6 25l-29 31q-10 10 -18 10h-410q-12 0 -20 -8l-31 -33q-6 -6 -6 -8v-6v-942z" />
<glyph unicode="1" horiz-adv-x="477" d="M34 1246q-9 11 3 28l96 129q10 12 15.5 19.5t15.5 7.5h168q10 0 20 -7.5t10 -21.5v-1372q0 -12 -9 -20.5t-21 -8.5h-135q-29 0 -29 29v1206h-115q-10 0 -19 11z" />
<glyph unicode="2" horiz-adv-x="1126" d="M113 29v604q0 8 2 16t6 17.5t14 19.5l115 115q23 23 53 22h510l29 29q6 6 6 14v312q0 8 -6 14l-33 35q-6 6 -14 6h-488v-209q0 -10 -8 -19.5t-20 -9.5h-138q-12 0 -20 9.5t-8 19.5v215q0 14 3 25.5t19 27.5l115 115q23 23 53 23h526q20 0 29.5 -3.5t26.5 -19.5l116 -115 q10 -10 13.5 -19t5.5 -18q2 -8 2 -16v-420q0 -16 -4 -28.5t-17 -24.5l-116 -117q-20 -20 -54 -20h-473q-6 0 -12 -6l-33 -33q-6 -6 -6 -17v-378h686q12 0 20.5 -9.5t8.5 -19.5v-137q0 -29 -29 -29h-852q-29 0 -28 29z" />
<glyph unicode="3" horiz-adv-x="1073" d="M80 184v219q0 29 29 29h137q10 0 19 -8t9 -21v-208h471l27 28q4 4 6 8.5t2 10.5v317q0 10 -8 19l-33 34q-4 6 -14 6h-322v195h340l29 29q8 8 8 18v320q0 4 -3 8t-5 6l-33 35q-4 6 -14 6h-451v-211q0 -10 -9 -19.5t-19 -9.5h-137q-12 0 -20.5 9.5t-8.5 19.5v215 q0 33 20 53l117 115q14 14 23.5 18.5t29.5 4.5h514q18 0 28.5 -4.5t25.5 -18.5l114 -115q23 -23 23 -57v-420q0 -16 -3 -27.5t-20 -27.5l-61 -62l61 -59q23 -18 23 -39v-407q0 -12 -6 -29t-17 -27l-114 -117q-14 -14 -27.5 -17t-22.5 -3h-524q-14 0 -23.5 3t-23.5 17 l-117 117q-20 20 -20 47z" />
<glyph unicode="4" horiz-adv-x="1144" d="M104 616v785q0 10 8.5 19.5t20.5 9.5h137q10 0 19.5 -9.5t9.5 -19.5v-737q0 -8 6 -15l29 -28h424v780q0 12 9 20.5t21 8.5h136q29 0 28 -29v-780h107q29 0 28 -29v-137q0 -10 -8 -19.5t-20 -9.5h-107v-397q0 -29 -28 -29h-136q-12 0 -21 8t-9 21v397h-463q-16 0 -27.5 4 t-25.5 19l-117 114q-20 20 -21 53z" />
<glyph unicode="5" horiz-adv-x="1126" d="M113 190v213q0 29 28 29h138q29 0 28 -29v-208h467q8 0 14 6l33 32q6 6 6 17v364v4q0 2 -2 5.5t-4 7.5l-28 28h-490q-10 0 -24.5 3.5t-28.5 17.5l-115 117q-23 23 -22 53v551q0 10 8 19.5t20 9.5h852q12 0 20.5 -9.5t8.5 -19.5v-135q0 -29 -29 -29h-686v-328q0 -10 6 -16 l33 -33q6 -6 12 -6h473q31 0 54 -23l116 -114q16 -16 18.5 -32.5t2.5 -20.5v-474q0 -23 -6 -34t-15 -19l-116 -117q-14 -14 -23.5 -17t-25.5 -3h-533q-10 0 -24.5 3t-28.5 17l-115 117q-14 14 -18 25.5t-4 27.5z" />
<glyph unicode="6" horiz-adv-x="1093" d="M104 190v1053q0 8 3.5 21.5t17.5 27.5l117 115q16 16 26.5 19.5t26.5 3.5h514q16 0 25.5 -3.5t27.5 -19.5l115 -115q23 -23 22 -57v-211q0 -10 -9 -19.5t-21 -9.5h-115q-12 0 -20.5 9.5t-8.5 19.5v211h-473q-8 0 -14 -6l-33 -35q-4 -6 -5 -7t-1 -7v-273q0 -10 6 -14 l29 -29h475q16 0 25.5 -3t27.5 -19l117 -115q14 -14 17 -26.5t3 -26.5v-486q0 -16 -3 -25t-19 -26l-115 -117q-14 -14 -27.5 -17t-21.5 -3h-4h-530q-12 0 -19.5 5t-17.5 15l-117 117q-20 20 -21 53zM299 238q0 -10 6 -15l27 -26h438l27 28q8 8 8 15v374q0 8 -8 17l-39 39 h-406q-10 0 -14 -6l-33 -35q-6 -6 -6 -15v-376z" />
<glyph unicode="7" horiz-adv-x="993" d="M53 1264v137q0 29 29 29h821q29 0 29 -29v-217q0 -23 -7 -41.5t-14 -36.5l-395 -1106h-221q0 6 6 23l434 1212h-653q-29 0 -29 29z" />
<glyph unicode="8" horiz-adv-x="1093" d="M100 188v392q0 14 21 38l61 80l-61 82q-12 16 -16.5 28.5t-4.5 18.5v414q0 31 21 51l117 115q16 16 28.5 19.5t24.5 3.5h514q16 0 26.5 -3.5t26.5 -19.5l115 -115q16 -16 19 -31.5t3 -19.5v-407q0 -16 -4 -25.5t-18 -28.5l-62 -82l62 -80q10 -10 16 -20t6 -18v-392 q0 -6 -3 -20t-19 -31l-115 -117q-14 -14 -27.5 -17t-21.5 -3h-524q-8 0 -20.5 3t-26.5 17l-117 117q-14 14 -17.5 25.5t-3.5 25.5zM274 238q0 -10 7 -15l28 -28h457l31 32q4 4 4 15v325q0 10 -6 17l-35 37q-6 6 -15 6h-417q-10 0 -15 -6l-32 -35q-6 -8 -7 -19v-329zM274 848 q0 -10 7 -14l28 -29h455l29 29q8 6 8 14v330q0 8 -8 16l-33 35q-4 6 -15 6h-417q-8 0 -15 -6l-32 -35q-6 -10 -7 -14v-332z" />
<glyph unicode="9" horiz-adv-x="1093" d="M96 184v219q0 29 29 29h137q10 0 19.5 -8t9.5 -21v-206h450q8 0 15 6l32 33q6 6 7.5 9t1.5 7v268q0 8 -9 17l-28 28h-479q-6 0 -19.5 3t-28.5 18l-116 116q-20 20 -21 54v485q0 6 2 20.5t19 30.5l116 115q16 16 29.5 19.5t24.5 3.5l528 -3q18 0 39 -20l115 -115 q23 -23 22 -57l-2 -1045q0 -10 -3 -24t-17 -29l-115 -117q-14 -14 -27.5 -17t-21.5 -3h-524q-6 0 -19.5 3t-28.5 17l-116 117q-14 14 -17.5 27.5t-3.5 19.5zM291 813q0 -8 6 -14l33 -33q4 -4 8 -4h403q8 0 15 6l32 33q4 4 4.5 5l2.5 5q0 2 2 6v375q0 6 -9 14l-24 27h-438 l-29 -29q-6 -6 -6 -14v-377z" />
<glyph unicode=":" horiz-adv-x="395" d="M102 25v165q0 29 29 29h133q29 0 29 -29v-165q0 -10 -9.5 -17.5t-19.5 -7.5h-133q-10 0 -19.5 7t-9.5 18zM102 598v166q0 29 29 29h133q29 0 29 -29v-166q0 -10 -9.5 -17.5t-19.5 -7.5h-133q-10 0 -19.5 7.5t-9.5 17.5z" />
<glyph unicode=";" horiz-adv-x="395" d="M102 -188v378q0 29 29 29h133q29 0 29 -29v-262q0 -16 -27 -37l-127 -96q-16 -10 -26.5 -2t-10.5 19zM102 598v166q0 29 29 29h133q29 0 29 -29v-166q0 -10 -9.5 -17.5t-19.5 -7.5h-133q-10 0 -19.5 7.5t-9.5 17.5z" />
<glyph unicode="&#x3c;" horiz-adv-x="954" d="M82 647v178q0 4 4 15.5t20 19.5l728 357q16 8 27 -1.5t11 -23.5v-164q0 -12 -9 -22.5t-19 -14.5l-547 -254l547 -256q10 -4 19 -14t9 -23v-161q0 -12 -9 -22.5t-19 -6.5l-738 360q-8 4 -16 9.5t-8 23.5z" />
<glyph unicode="=" horiz-adv-x="1075" d="M92 508v133q0 10 7 20.5t18 10.5h835q12 0 21.5 -9.5t9.5 -21.5v-133q0 -12 -9 -21.5t-22 -9.5h-835q-10 0 -17.5 9.5t-7.5 21.5zM92 831v134q0 10 7 20t18 10h835q12 0 21.5 -9t9.5 -21v-134q0 -12 -9 -21t-22 -9h-835q-10 0 -17.5 9t-7.5 21z" />
<glyph unicode="&#x3e;" horiz-adv-x="954" d="M82 283v161q0 12 9 22.5t20 14.5l546 256l-546 254q-10 4 -19.5 14.5t-9.5 22.5v164q0 14 11 23.5t28 1.5l727 -357q16 -8 20 -19.5t4 -15.5v-178q0 -18 -8 -23.5t-16 -9.5l-737 -360q-10 -4 -19.5 3t-9.5 26z" />
<glyph unicode="?" horiz-adv-x="1064" d="M74 1010v235q0 8 3 21.5t17 27.5l117 115q12 12 24.5 16.5t28.5 4.5h529q8 0 22 -2.5t31 -18.5l117 -115q20 -20 20 -37v-628q0 -12 -8 -21.5t-21 -9.5h-372v-203q0 -29 -29 -28h-137q-29 0 -29 28v369q0 29 29 29h372v401q0 8 -6 14l-28 29h-451l-29 -29q-6 -6 -6 -14 v-184q0 -12 -9 -20.5t-19 -8.5h-138q-29 0 -28 29zM387 25v182q0 29 29 29h137q29 0 29 -29v-182q0 -10 -9.5 -17.5t-19.5 -7.5h-137q-10 0 -19.5 7t-9.5 18z" />
<glyph unicode="@" horiz-adv-x="1624" d="M135 -72v1127q0 20 15 35l77 77q12 12 19.5 13.5t17.5 1.5h1096q23 0 37 -15l78 -77q10 -12 12 -18.5t2 -16.5v-920h-901q-10 0 -17.5 2t-17.5 13l-78 77q-14 14 -14 37v465q0 23 14 37l78 78q10 10 20.5 12t14.5 2h438q6 0 15.5 -1t21.5 -13l78 -78q10 -10 12 -18.5 t2 -18.5v-401h139v624q0 6 -4 11l-22 22q-4 4 -11 4h-892q-4 0 -9 -4l-22 -22q-6 -6 -6 -11v-917q0 -6 6 -12l18 -21h815v-203h-903q-23 0 -37 15l-77 77q-12 12 -13.5 19.5t-1.5 17.5zM653 358q0 -6 4 -10l21 -18h260l20 18q4 4 5 10v267q0 8 -5 12l-24 25q-4 4 -8 4h-236 q-6 0 -10 -4l-23 -25q-4 -4 -4 -10v-269z" />
<glyph unicode="A" horiz-adv-x="1153" d="M23 29l405 1370q4 14 10 21t19 7h241q12 0 18.5 -7t10.5 -21l403 -1370q1 -3 1 -6q0 -7 -7 -13q-10 -10 -22 -10h-125q-10 0 -21.5 9t-15.5 20l-98 331h-529l-98 -327q-10 -33 -39 -33h-123q-11 0 -23 9q-8 6 -9 14q0 3 2 6zM369 553h417l-208 704z" />
<glyph unicode="B" horiz-adv-x="1083" d="M115 29v1372q0 29 28 29h650q10 0 23 -2.5t30 -18.5l115 -115q18 -20 20 -33.5t2 -19.5v-375q0 -14 -3 -25.5t-19 -27.5l-80 -80l80 -82q16 -16 19 -26.5t3 -26.5v-410q0 -29 -22 -51l-115 -114q-23 -23 -53 -23h-650q-29 0 -28 29zM305 190h418l8 7l51 51q10 10 11 22 v262q0 6 -2.5 14.5t-8.5 14.5l-51 51l-14 9h-412v-431zM305 811h406q10 0 20 10l51 51q10 10 11 21v264q0 10 -3.5 14.5t-7.5 10.5l-51 53q-4 4 -12 4h-414v-428z" />
<glyph unicode="C" horiz-adv-x="1091" d="M104 188v1053q0 8 2 16q4 18 21 35l115 117q20 20 51 21h530q31 0 51 -21l117 -115q20 -20 21 -53v-219q0 -29 -29 -29h-133q-29 0 -29 29v141q0 10 -8 19l-49 51q-4 4 -8 6h-394q-4 0 -8 -4l-51 -53q-4 -4 -8 -13v-905l8 -14l51 -51l15 -9h379l14 9l51 51l8 14v139 q0 29 29 29h133q29 0 29 -29v-217q0 -6 -3 -20t-20 -29l-115 -114q-10 -10 -19 -16.5t-32 -6.5h-526q-33 0 -55 23l-115 114q-16 16 -21 35q-2 8 -2 16z" />
<glyph unicode="D" horiz-adv-x="1087" d="M115 29v1372q0 29 28 29h650q12 0 25 -3.5t28 -17.5l115 -115q12 -12 17 -23t5 -30v-1053q0 -8 -3 -21t-19 -30l-115 -114q-12 -12 -21.5 -17.5t-31.5 -5.5h-650q-29 0 -28 29zM305 190h412l14 9l51 51q6 6 8.5 9t2.5 13v889q0 6 -11 21l-51 53q-4 4 -10 4h-416v-1049z " />
<glyph unicode="E" horiz-adv-x="972" d="M115 29v1372q0 29 28 29h744q10 0 19 -8.5t9 -20.5v-133q0 -12 -9 -20.5t-19 -8.5h-582v-428h459q29 0 29 -29v-133q0 -29 -29 -28h-459v-431h582q10 0 19 -8t9 -20v-133q0 -12 -9 -20.5t-19 -8.5h-744q-29 0 -28 29z" />
<glyph unicode="F" horiz-adv-x="972" d="M115 29v1372q0 29 28 29h744q10 0 19 -8.5t9 -20.5v-133q0 -10 -3 -19.5t-13 -9.5h-594v-428h490q10 0 19 -8t9 -21v-133q0 -12 -9 -20t-19 -8h-490v-592q0 -29 -29 -29h-133q-29 0 -28 29z" />
<glyph unicode="G" horiz-adv-x="1116" d="M104 188v1053q0 29 23 51l115 117q16 16 31.5 18.5t19.5 2.5h530q12 0 25.5 -4.5t25.5 -16.5l117 -115q20 -20 21 -53v-219q0 -29 -29 -29h-133q-29 0 -29 29v162l-55 55h-397q-8 0 -13 -4l-51 -53q-10 -10 -10 -21v-889q0 -12 10 -22l51 -51q8 -8 21 -9h377q8 0 16 9 l51 51v328h-243q-12 0 -20.5 9t-8.5 19v133q0 29 29 29h405q29 0 29 -29v-565q0 -18 -23 -37l-115 -114q-23 -23 -51 -23h-528q-31 0 -53 23l-115 114q-16 16 -19.5 24.5t-3.5 26.5z" />
<glyph unicode="H" horiz-adv-x="1136" d="M115 29v1372q0 29 28 29h133q29 0 29 -29v-631h526v631q0 29 29 29h133q29 0 29 -29v-1372q0 -29 -29 -29h-133q-29 0 -29 29v551h-526v-551q0 -29 -29 -29h-133q-29 0 -28 29z" />
<glyph unicode="I" horiz-adv-x="419" d="M115 29v1370q0 12 8 21.5t20 9.5h133q12 0 20.5 -9.5t8.5 -21.5v-1370q0 -29 -29 -29h-133q-29 0 -28 29z" />
<glyph unicode="J" horiz-adv-x="1034" d="M74 174v322q0 29 28 28h134q29 0 28 -28v-232l8 -14l52 -51l14 -9h332q6 0 14 9l51 51v1155q0 10 9.5 17.5t19.5 7.5h133q10 0 19.5 -7.5t9.5 -17.5v-1217q0 -31 -21 -51l-114 -114q-23 -23 -54 -23h-475q-29 0 -51 23l-115 114q-23 18 -22 37z" />
<glyph unicode="K" horiz-adv-x="1015" d="M115 29v1372q0 29 28 29h133q29 0 29 -29v-578l447 586q14 20 36 21h170q12 0 19.5 -9.5t-0.5 -19.5l-373 -479l397 -893q1 -3 1 -7q0 -6 -5 -12q-8 -10 -20 -10h-150q-12 0 -22 9t-14 20l-320 716l-166 -210v-506q0 -29 -29 -29h-133q-29 0 -28 29z" />
<glyph unicode="L" horiz-adv-x="980" d="M115 29v1376q0 10 9 17.5t19 7.5h133q10 0 19.5 -7.5t9.5 -17.5v-1215h602q29 0 29 -28v-133q0 -29 -29 -29h-764q-29 0 -28 29z" />
<glyph unicode="M" horiz-adv-x="1335" d="M82 29l55 1370q0 10 7.5 20.5t19.5 10.5h145q20 0 31 -29l268 -899l68 -209l49 209l270 899q10 29 31 29h145q10 0 18.5 -10.5t8.5 -20.5l55 -1370q0 -12 -9 -20.5t-19 -8.5h-133q-12 0 -21.5 8t-9.5 21l-12 880l-271 -876q-4 -10 -16 -21.5t-23 -11.5h-108 q-12 0 -23.5 9t-15.5 22l-305 913l-15 -915q0 -29 -28 -29h-133q-29 0 -29 29z" />
<glyph unicode="N" horiz-adv-x="1114" d="M115 29v1372q0 29 28 29h195q12 0 18 -7.5t13 -21.5l438 -981v981q0 12 9 20.5t20 8.5h133q12 0 21 -8.5t9 -20.5v-1372q0 -12 -9 -20.5t-21 -8.5h-150q-12 0 -20 8t-13 19l-481 1052v-1050q0 -29 -29 -29h-133q-29 0 -28 29z" />
<glyph unicode="O" horiz-adv-x="1116" d="M104 190v1051q0 33 21 53l117 115q12 12 23 16.5t26 4.5h532q12 0 24.5 -3.5t26.5 -17.5l117 -115q16 -16 18.5 -31.5t2.5 -25.5v-1038q0 -39 -23 -62l-115 -114q-10 -10 -21 -16.5t-30 -6.5h-530q-18 0 -29.5 6t-21.5 17l-115 114q-14 14 -18.5 27.5t-4.5 25.5zM295 258 q0 -6 4 -10l49 -49q8 -8 17 -9h383q12 0 20 9l49 49q4 4 4 10v924l-51 51q-6 6 -14 6h-396q-8 0 -14 -6l-51 -51v-924z" />
<glyph unicode="P" horiz-adv-x="1071" d="M115 29v1372q0 29 28 29h650q10 0 24 -3.5t29 -17.5l115 -115q23 -23 22 -55v-524q0 -29 -22 -51l-115 -115q-14 -14 -26.5 -18.5t-26.5 -4.5h-488v-497q0 -29 -29 -29h-133q-29 0 -28 29zM305 717h414q8 4 12 8l53 51l9 15v372q0 10 -9 19l-53 53q-4 4 -14 4h-412v-522z " />
<glyph unicode="Q" horiz-adv-x="1101" d="M100 190v1051q0 33 21 53l117 115q12 12 26.5 16.5t24.5 4.5h524q10 0 24.5 -4.5t26.5 -16.5l117 -115q16 -16 18 -31.5t2 -25.5v-1038q0 -39 -22 -62l-61 -61l110 -176q3 -4 3 -8q0 -6 -5 -12q-8 -9 -27 -9h-127q-10 0 -17 6t-19 23l-76 100h-471q-18 0 -29.5 6 t-21.5 17l-115 114q-14 14 -18.5 27.5t-4.5 25.5zM291 258q0 -6 4 -10l49 -49q8 -8 16 -9h377q12 0 21 9l49 49q4 4 4 10v924l-51 51q-6 6 -15 6h-389q-8 0 -14 -6l-51 -51v-924z" />
<glyph unicode="R" horiz-adv-x="1079" d="M115 29v1372q0 29 28 29h650q14 0 25 -2.5t28 -18.5l115 -115q8 -8 15 -22.5t7 -30.5v-520q0 -10 -3 -25.5t-19 -31.5l-123 -123l206 -512q2 -4 2 -8q0 -5 -4 -11q-6 -10 -22 -10h-141q-10 0 -21.5 9t-15.5 20l-201 497h-336v-497q0 -29 -29 -29h-133q-29 0 -28 29z M305 717h414q6 0 12 6l53 51q8 8 9 17v372q0 10 -9 19l-49 49q-8 8 -18 8h-412v-522z" />
<glyph unicode="S" horiz-adv-x="1107" d="M100 188v203q0 29 29 29h133q29 0 29 -29v-121q0 -10 10 -20l51 -51q8 -8 19 -9h374q8 0 17 9l51 49q4 4 4 10v301l-61 59h-471q-10 0 -21.5 4.5t-25.5 18.5l-115 115q-18 18 -20.5 29.5t-2.5 21.5v434q0 29 23 51l115 117q10 10 19 15.5t32 5.5h530q4 0 19.5 -2.5 t31.5 -18.5l117 -115q10 -10 15.5 -21t5.5 -32v-215q0 -29 -29 -29h-133q-29 0 -29 29v137q0 10 -8 19l-51 53q-4 4 -8 4h-394q-6 0 -10 -4l-49 -51q-6 -6 -6 -17v-284q0 -8 8 -17l47 -47q10 -10 23 -10h452q10 0 21.5 -3t27.5 -20l117 -114q20 -20 21 -54v-428q0 -4 -2 -19 t-21 -34l-115 -114q-23 -23 -51 -23h-528q-31 0 -53 23l-115 114q-16 16 -19.5 27.5t-3.5 23.5z" />
<glyph unicode="T" horiz-adv-x="966" d="M45 1266v133q0 12 8 21.5t21 9.5h819q12 0 20.5 -9.5t8.5 -21.5v-133q0 -10 -8.5 -19.5t-20.5 -9.5h-313v-1212q0 -10 -7.5 -17.5t-17.5 -7.5h-143q-10 0 -17.5 7t-7.5 18v1212h-313q-12 0 -20.5 9t-8.5 20z" />
<glyph unicode="U" horiz-adv-x="1124" d="M109 190v1211q0 10 8 19.5t20 9.5h133q12 0 20.5 -9.5t8.5 -19.5v-1137l8 -14l53 -51q8 -8 19 -9h366q16 0 25 9l51 51q4 4 4 8v1143q0 10 8.5 19.5t20.5 9.5h133q12 0 20.5 -9.5t8.5 -19.5v-1213q0 -29 -23 -51l-114 -114q-10 -10 -22.5 -16.5t-29.5 -6.5h-528 q-20 0 -31.5 6t-21.5 17l-115 114q-23 23 -22 53z" />
<glyph unicode="V" horiz-adv-x="991" d="M23 1391q-1 4 -1 8q0 7 5 17q8 14 20 14h146q25 0 30 -29l185 -735l88 -383l88 383l184 735q6 29 31 29h145q12 0 20 -14q6 -9 6 -17q0 -4 -1 -8l-355 -1358q-8 -33 -39 -33h-159q-12 0 -23.5 9t-15.5 24z" />
<glyph unicode="W" horiz-adv-x="1310" d="M70 1399q0 12 8 21.5t20 9.5h133q12 0 20.5 -9.5t8.5 -21.5l72 -1094l4 -29l217 685q10 29 33 28h139q20 0 31 -28l217 -685l4 29l72 1094q0 12 9 21.5t21 9.5h133q10 0 20.5 -9.5t8.5 -25.5l-111 -1366q0 -10 -7 -19.5t-17 -9.5h-203q-20 0 -29 29l-161 460l-58 191 l-59 -191l-160 -460q-8 -29 -30 -29h-201q-10 0 -18.5 9t-8.5 20z" />
<glyph unicode="X" horiz-adv-x="980" d="M31 29l354 710l-338 652q-8 16 1 27.5t24 11.5h153q12 0 22.5 -9.5t16.5 -21.5l225 -451l226 451q6 12 16 21.5t23 9.5h153q14 0 23.5 -11.5t1.5 -27.5l-338 -652l354 -710q2 -4 2 -7q0 -6 -7 -12q-11 -10 -23 -10h-146q-12 0 -18 8t-13 21l-254 510l-253 -510 q-6 -12 -12.5 -20.5t-18.5 -8.5h-146q-12 0 -23 9q-7 6 -7 12q0 4 2 8z" />
<glyph unicode="Y" horiz-adv-x="1087" d="M12 1420q8 10 31 10h154q12 0 19 -7.5t15 -19.5l314 -574l313 574q8 12 15.5 19.5t19.5 7.5h154q23 0 31 -10q3 -5 3 -11q0 -7 -6 -16l-436 -787v-577q0 -29 -23 -29h-143q-25 0 -24 29v579l-435 785q-6 9 -6 16q0 6 4 11z" />
<glyph unicode="Z" horiz-adv-x="1019" d="M72 29v137q0 8 6 18l631 1053h-609q-12 0 -20 9t-8 22v131q0 12 8 21.5t20 9.5h820q12 0 20 -9.5t8 -21.5v-125q0 -14 -10 -29l-633 -1055h615q29 0 28 -28v-133q0 -29 -28 -29h-820q-29 0 -28 29z" />
<glyph unicode="\" horiz-adv-x="1009" d="M43 1401q-4 10 3 19.5t17 9.5h170q10 0 16.5 -8.5t12.5 -20.5l699 -1360q8 -14 2.5 -27.5t-27.5 -13.5h-166q-12 0 -22.5 9t-16.5 20z" />
<glyph unicode="^" horiz-adv-x="1165" d="M73 646q-7 9 1 26l358 733q4 10 10.5 17.5t22.5 7.5h231q4 0 15.5 -4.5t19.5 -20.5l359 -733q8 -16 0.5 -25.5t-19.5 -9.5h-182q-12 0 -22.5 9t-14.5 20l-270 581l-271 -581q-4 -10 -14 -19.5t-23 -9.5h-182q-12 0 -19 9z" />
<glyph unicode="a" horiz-adv-x="1153" d="M23 29l405 1370q4 14 10 21t19 7h241q12 0 18.5 -7t10.5 -21l403 -1370q1 -3 1 -6q0 -7 -7 -13q-10 -10 -22 -10h-125q-10 0 -21.5 9t-15.5 20l-98 331h-529l-98 -327q-10 -33 -39 -33h-123q-11 0 -23 9q-8 6 -9 14q0 3 2 6zM369 553h417l-208 704z" />
<glyph unicode="b" horiz-adv-x="1083" d="M115 29v1372q0 29 28 29h650q10 0 23 -2.5t30 -18.5l115 -115q18 -20 20 -33.5t2 -19.5v-375q0 -14 -3 -25.5t-19 -27.5l-80 -80l80 -82q16 -16 19 -26.5t3 -26.5v-410q0 -29 -22 -51l-115 -114q-23 -23 -53 -23h-650q-29 0 -28 29zM305 190h418l8 7l51 51q10 10 11 22 v262q0 6 -2.5 14.5t-8.5 14.5l-51 51l-14 9h-412v-431zM305 811h406q10 0 20 10l51 51q10 10 11 21v264q0 10 -3.5 14.5t-7.5 10.5l-51 53q-4 4 -12 4h-414v-428z" />
<glyph unicode="c" horiz-adv-x="1091" d="M104 188v1053q0 8 2 16q4 18 21 35l115 117q20 20 51 21h530q31 0 51 -21l117 -115q20 -20 21 -53v-219q0 -29 -29 -29h-133q-29 0 -29 29v141q0 10 -8 19l-49 51q-4 4 -8 6h-394q-4 0 -8 -4l-51 -53q-4 -4 -8 -13v-905l8 -14l51 -51l15 -9h379l14 9l51 51l8 14v139 q0 29 29 29h133q29 0 29 -29v-217q0 -6 -3 -20t-20 -29l-115 -114q-10 -10 -19 -16.5t-32 -6.5h-526q-33 0 -55 23l-115 114q-16 16 -21 35q-2 8 -2 16z" />
<glyph unicode="d" horiz-adv-x="1087" d="M115 29v1372q0 29 28 29h650q12 0 25 -3.5t28 -17.5l115 -115q12 -12 17 -23t5 -30v-1053q0 -8 -3 -21t-19 -30l-115 -114q-12 -12 -21.5 -17.5t-31.5 -5.5h-650q-29 0 -28 29zM305 190h412l14 9l51 51q6 6 8.5 9t2.5 13v889q0 6 -11 21l-51 53q-4 4 -10 4h-416v-1049z " />
<glyph unicode="e" horiz-adv-x="972" d="M115 29v1372q0 29 28 29h744q10 0 19 -8.5t9 -20.5v-133q0 -12 -9 -20.5t-19 -8.5h-582v-428h459q29 0 29 -29v-133q0 -29 -29 -28h-459v-431h582q10 0 19 -8t9 -20v-133q0 -12 -9 -20.5t-19 -8.5h-744q-29 0 -28 29z" />
<glyph unicode="f" horiz-adv-x="972" d="M115 29v1372q0 29 28 29h744q10 0 19 -8.5t9 -20.5v-133q0 -10 -3 -19.5t-13 -9.5h-594v-428h490q10 0 19 -8t9 -21v-133q0 -12 -9 -20t-19 -8h-490v-592q0 -29 -29 -29h-133q-29 0 -28 29z" />
<glyph unicode="g" horiz-adv-x="1116" d="M104 188v1053q0 29 23 51l115 117q16 16 31.5 18.5t19.5 2.5h530q12 0 25.5 -4.5t25.5 -16.5l117 -115q20 -20 21 -53v-219q0 -29 -29 -29h-133q-29 0 -29 29v162l-55 55h-397q-8 0 -13 -4l-51 -53q-10 -10 -10 -21v-889q0 -12 10 -22l51 -51q8 -8 21 -9h377q8 0 16 9 l51 51v328h-243q-12 0 -20.5 9t-8.5 19v133q0 29 29 29h405q29 0 29 -29v-565q0 -18 -23 -37l-115 -114q-23 -23 -51 -23h-528q-31 0 -53 23l-115 114q-16 16 -19.5 24.5t-3.5 26.5z" />
<glyph unicode="h" horiz-adv-x="1136" d="M115 29v1372q0 29 28 29h133q29 0 29 -29v-631h526v631q0 29 29 29h133q29 0 29 -29v-1372q0 -29 -29 -29h-133q-29 0 -29 29v551h-526v-551q0 -29 -29 -29h-133q-29 0 -28 29z" />
<glyph unicode="i" horiz-adv-x="419" d="M115 29v1370q0 12 8 21.5t20 9.5h133q12 0 20.5 -9.5t8.5 -21.5v-1370q0 -29 -29 -29h-133q-29 0 -28 29z" />
<glyph unicode="j" horiz-adv-x="1038" d="M78 174v322q0 29 28 28h134q29 0 28 -28v-232l8 -14l52 -51l14 -9h332q6 0 14 9l51 51v1155q0 10 9.5 17.5t19.5 7.5h133q10 0 19.5 -7.5t9.5 -17.5v-1217q0 -31 -21 -51l-114 -114q-23 -23 -54 -23h-475q-29 0 -51 23l-115 114q-23 18 -22 37z" />
<glyph unicode="k" horiz-adv-x="1015" d="M115 29v1372q0 29 28 29h133q29 0 29 -29v-578l447 586q14 20 36 21h170q12 0 19.5 -9.5t-0.5 -19.5l-373 -479l397 -893q1 -3 1 -7q0 -6 -5 -12q-8 -10 -20 -10h-150q-12 0 -22 9t-14 20l-320 716l-166 -210v-506q0 -29 -29 -29h-133q-29 0 -28 29z" />
<glyph unicode="l" horiz-adv-x="980" d="M115 29v1376q0 10 9 17.5t19 7.5h133q10 0 19.5 -7.5t9.5 -17.5v-1215h602q29 0 29 -28v-133q0 -29 -29 -29h-764q-29 0 -28 29z" />
<glyph unicode="m" horiz-adv-x="1335" d="M82 29l55 1370q0 10 7.5 20.5t19.5 10.5h145q20 0 31 -29l268 -899l68 -209l49 209l270 899q10 29 31 29h145q10 0 18.5 -10.5t8.5 -20.5l55 -1370q0 -12 -9 -20.5t-19 -8.5h-133q-12 0 -21.5 8t-9.5 21l-12 880l-271 -876q-4 -10 -16 -21.5t-23 -11.5h-108 q-12 0 -23.5 9t-15.5 22l-305 913l-15 -915q0 -29 -28 -29h-133q-29 0 -29 29z" />
<glyph unicode="n" horiz-adv-x="1114" d="M115 29v1372q0 29 28 29h195q12 0 18 -7.5t13 -21.5l438 -981v981q0 12 9 20.5t20 8.5h133q12 0 21 -8.5t9 -20.5v-1372q0 -12 -9 -20.5t-21 -8.5h-150q-12 0 -20 8t-13 19l-481 1052v-1050q0 -29 -29 -29h-133q-29 0 -28 29z" />
<glyph unicode="o" horiz-adv-x="1116" d="M104 190v1051q0 33 21 53l117 115q12 12 23 16.5t26 4.5h532q12 0 24.5 -3.5t26.5 -17.5l117 -115q16 -16 18.5 -31.5t2.5 -25.5v-1038q0 -39 -23 -62l-115 -114q-10 -10 -21 -16.5t-30 -6.5h-530q-18 0 -29.5 6t-21.5 17l-115 114q-14 14 -18.5 27.5t-4.5 25.5zM295 258 q0 -6 4 -10l49 -49q8 -8 17 -9h383q12 0 20 9l49 49q4 4 4 10v924l-51 51q-6 6 -14 6h-396q-8 0 -14 -6l-51 -51v-924z" />
<glyph unicode="p" horiz-adv-x="1071" d="M115 29v1372q0 29 28 29h650q10 0 24 -3.5t29 -17.5l115 -115q23 -23 22 -55v-524q0 -29 -22 -51l-115 -115q-14 -14 -26.5 -18.5t-26.5 -4.5h-488v-497q0 -29 -29 -29h-133q-29 0 -28 29zM305 717h414q8 4 12 8l53 51l9 15v372q0 10 -9 19l-53 53q-4 4 -14 4h-412v-522z " />
<glyph unicode="q" horiz-adv-x="1101" d="M100 190v1051q0 33 21 53l117 115q12 12 26.5 16.5t24.5 4.5h524q10 0 24.5 -4.5t26.5 -16.5l117 -115q16 -16 18 -31.5t2 -25.5v-1038q0 -39 -22 -62l-61 -61l110 -176q3 -4 3 -8q0 -6 -5 -12q-8 -9 -27 -9h-127q-10 0 -17 6t-19 23l-76 100h-471q-18 0 -29.5 6 t-21.5 17l-115 114q-14 14 -18.5 27.5t-4.5 25.5zM291 258q0 -6 4 -10l49 -49q8 -8 16 -9h377q12 0 21 9l49 49q4 4 4 10v924l-51 51q-6 6 -15 6h-389q-8 0 -14 -6l-51 -51v-924z" />
<glyph unicode="r" horiz-adv-x="1079" d="M115 29v1372q0 29 28 29h650q14 0 25 -2.5t28 -18.5l115 -115q8 -8 15 -22.5t7 -30.5v-520q0 -10 -3 -25.5t-19 -31.5l-123 -123l206 -512q2 -4 2 -8q0 -5 -4 -11q-6 -10 -22 -10h-141q-10 0 -21.5 9t-15.5 20l-201 497h-336v-497q0 -29 -29 -29h-133q-29 0 -28 29z M305 717h414q6 0 12 6l53 51q8 8 9 17v372q0 10 -9 19l-49 49q-8 8 -18 8h-412v-522z" />
<glyph unicode="s" horiz-adv-x="1107" d="M100 188v203q0 29 29 29h133q29 0 29 -29v-121q0 -10 10 -20l51 -51q8 -8 19 -9h374q8 0 17 9l51 49q4 4 4 10v301l-61 59h-471q-10 0 -21.5 4.5t-25.5 18.5l-115 115q-18 18 -20.5 29.5t-2.5 21.5v434q0 29 23 51l115 117q10 10 19 15.5t32 5.5h530q4 0 19.5 -2.5 t31.5 -18.5l117 -115q10 -10 15.5 -21t5.5 -32v-215q0 -29 -29 -29h-133q-29 0 -29 29v137q0 10 -8 19l-51 53q-4 4 -8 4h-394q-6 0 -10 -4l-49 -51q-6 -6 -6 -17v-284q0 -8 8 -17l47 -47q10 -10 23 -10h452q10 0 21.5 -3t27.5 -20l117 -114q20 -20 21 -54v-428q0 -4 -2 -19 t-21 -34l-115 -114q-23 -23 -51 -23h-528q-31 0 -53 23l-115 114q-16 16 -19.5 27.5t-3.5 23.5z" />
<glyph unicode="t" horiz-adv-x="966" d="M45 1266v133q0 12 8 21.5t21 9.5h819q12 0 20.5 -9.5t8.5 -21.5v-133q0 -10 -8.5 -19.5t-20.5 -9.5h-313v-1212q0 -10 -7.5 -17.5t-17.5 -7.5h-143q-10 0 -17.5 7t-7.5 18v1212h-313q-12 0 -20.5 9t-8.5 20z" />
<glyph unicode="u" horiz-adv-x="1124" d="M109 190v1211q0 10 8 19.5t20 9.5h133q12 0 20.5 -9.5t8.5 -19.5v-1137l8 -14l53 -51q8 -8 19 -9h366q16 0 25 9l51 51q4 4 4 8v1143q0 10 8.5 19.5t20.5 9.5h133q12 0 20.5 -9.5t8.5 -19.5v-1213q0 -29 -23 -51l-114 -114q-10 -10 -22.5 -16.5t-29.5 -6.5h-528 q-20 0 -31.5 6t-21.5 17l-115 114q-23 23 -22 53z" />
<glyph unicode="v" horiz-adv-x="993" d="M23 1391q-1 4 -1 8q0 7 5 17q8 14 20 14h146q25 0 30 -29l185 -735l88 -383l88 383l184 735q6 29 31 29h145q12 0 20 -14q6 -9 6 -17q0 -4 -1 -8l-355 -1358q-8 -33 -39 -33h-159q-12 0 -23.5 9t-15.5 24z" />
<glyph unicode="w" horiz-adv-x="1302" d="M68 1399q0 12 8 21.5t20 9.5h133q12 0 20.5 -9.5t8.5 -21.5l72 -1094l4 -29l217 685q10 29 33 28h139q20 0 31 -28l217 -685l4 29l72 1094q0 12 9 21.5t21 9.5h133q10 0 20.5 -9.5t8.5 -25.5l-111 -1366q0 -10 -7 -19.5t-17 -9.5h-203q-20 0 -29 29l-161 460l-58 191 l-59 -191l-160 -460q-8 -29 -30 -29h-201q-10 0 -18.5 9t-8.5 20z" />
<glyph unicode="x" horiz-adv-x="980" d="M31 29l354 710l-338 652q-8 16 1 27.5t24 11.5h153q12 0 22.5 -9.5t16.5 -21.5l225 -451l226 451q6 12 16 21.5t23 9.5h153q14 0 23.5 -11.5t1.5 -27.5l-338 -652l354 -710q2 -4 2 -7q0 -6 -7 -12q-11 -10 -23 -10h-146q-12 0 -18 8t-13 21l-254 510l-253 -510 q-6 -12 -12.5 -20.5t-18.5 -8.5h-146q-12 0 -23 9q-7 6 -7 12q0 4 2 8z" />
<glyph unicode="y" horiz-adv-x="1087" d="M12 1420q8 10 31 10h154q12 0 19 -7.5t15 -19.5l314 -574l313 574q8 12 15.5 19.5t19.5 7.5h154q23 0 31 -10q3 -5 3 -11q0 -7 -6 -16l-436 -787v-577q0 -29 -23 -29h-143q-25 0 -24 29v579l-435 785q-6 9 -6 16q0 6 4 11z" />
<glyph unicode="z" horiz-adv-x="1019" d="M72 29v137q0 8 6 18l631 1053h-609q-12 0 -20 9t-8 22v131q0 12 8 21.5t20 9.5h820q12 0 20 -9.5t8 -21.5v-125q0 -14 -10 -29l-633 -1055h615q29 0 28 -28v-133q0 -29 -28 -29h-820q-29 0 -28 29z" />
<glyph unicode="|" horiz-adv-x="456" d="M133 29v1370q0 12 8.5 21.5t20.5 9.5h133q12 0 20.5 -9.5t8.5 -21.5v-1370q0 -29 -29 -29h-133q-29 0 -29 29z" />
<glyph unicode="&#xad;" d="M72 670v135q0 10 7 19.5t17 9.5h713q12 0 21.5 -8.5t9.5 -20.5v-135q0 -12 -9.5 -20.5t-21.5 -8.5h-713q-10 0 -17 9t-7 20z" />
<glyph unicode="&#x2000;" horiz-adv-x="721" />
<glyph unicode="&#x2001;" horiz-adv-x="1442" />
<glyph unicode="&#x2002;" horiz-adv-x="721" />
<glyph unicode="&#x2003;" horiz-adv-x="1442" />
<glyph unicode="&#x2004;" horiz-adv-x="480" />
<glyph unicode="&#x2005;" horiz-adv-x="360" />
<glyph unicode="&#x2006;" horiz-adv-x="240" />
<glyph unicode="&#x2007;" horiz-adv-x="240" />
<glyph unicode="&#x2008;" horiz-adv-x="180" />
<glyph unicode="&#x2009;" horiz-adv-x="288" />
<glyph unicode="&#x200a;" horiz-adv-x="80" />
<glyph unicode="&#x2010;" d="M72 670v135q0 10 7 19.5t17 9.5h713q12 0 21.5 -8.5t9.5 -20.5v-135q0 -12 -9.5 -20.5t-21.5 -8.5h-713q-10 0 -17 9t-7 20z" />
<glyph unicode="&#x2011;" d="M72 670v135q0 10 7 19.5t17 9.5h713q12 0 21.5 -8.5t9.5 -20.5v-135q0 -12 -9.5 -20.5t-21.5 -8.5h-713q-10 0 -17 9t-7 20z" />
<glyph unicode="&#x2012;" d="M72 670v135q0 10 7 19.5t17 9.5h713q12 0 21.5 -8.5t9.5 -20.5v-135q0 -12 -9.5 -20.5t-21.5 -8.5h-713q-10 0 -17 9t-7 20z" />
<glyph unicode="&#x2013;" horiz-adv-x="1075" d="M92 670v135q0 10 7 19.5t18 9.5h835q12 0 21.5 -8.5t9.5 -20.5v-135q0 -12 -9 -20.5t-22 -8.5h-835q-10 0 -17.5 9t-7.5 20z" />
<glyph unicode="&#x2014;" horiz-adv-x="1546" d="M92 670v135q0 10 7 19.5t18 9.5h1306q12 0 21.5 -8.5t9.5 -20.5v-135q0 -12 -9 -20.5t-22 -8.5h-1306q-10 0 -17.5 9t-7.5 20z" />
<glyph unicode="&#x2018;" horiz-adv-x="335" d="M72 1241v158q0 29 28 28h136q29 0 28 -28v-279q0 -10 -10 -18t-27 2l-127 96q-14 10 -21 18.5t-7 22.5z" />
<glyph unicode="&#x2019;" horiz-adv-x="335" d="M72 1120v279q0 29 28 28h136q29 0 28 -28v-162q0 -10 -7 -18.5t-21 -18.5l-127 -96q-16 -10 -26.5 -2t-10.5 18z" />
<glyph unicode="&#x201c;" horiz-adv-x="661" d="M72 1241v158q0 29 28 28h136q29 0 28 -28v-279q0 -10 -10 -18t-27 2l-127 96q-14 10 -21 18.5t-7 22.5zM397 1241v158q0 29 29 28h135q29 0 29 -28v-279q0 -10 -10.5 -18t-26.5 2l-127 96q-14 10 -21.5 18.5t-7.5 22.5z" />
<glyph unicode="&#x201d;" horiz-adv-x="661" d="M72 1120v279q0 29 28 28h136q29 0 28 -28v-158q0 -14 -7 -22.5t-21 -18.5l-127 -96q-16 -10 -26.5 -2t-10.5 18zM397 1120v279q0 29 29 28h135q29 0 29 -28v-158q0 -14 -7.5 -22.5t-21.5 -18.5l-127 -96q-16 -10 -26.5 -2t-10.5 18z" />
<glyph unicode="&#x2022;" horiz-adv-x="638" d="M123 573v322q0 18 12 30.5t31 12.5h307q16 0 29.5 -12.5t13.5 -30.5v-322h-2q-2 -16 -13.5 -26t-27.5 -10h-307q-16 0 -27.5 10t-13.5 26h-2z" />
<glyph unicode="&#x202f;" horiz-adv-x="288" />
<glyph unicode="&#x205f;" horiz-adv-x="360" />
<glyph unicode="&#x25fc;" horiz-adv-x="1433" d="M0 0v1434h1434v-1434h-1434z" />
</font>
</defs>
</svg>
