<?xml version="1.0" standalone="no"?>
<!DOCTYPE svg PUBLIC "-//W3C//DTD SVG 1.1//EN" "http://www.w3.org/Graphics/SVG/1.1/DTD/svg11.dtd" >
<svg xmlns="http://www.w3.org/2000/svg">
<metadata></metadata>
<defs>
<font id="liberatorheavy" horiz-adv-x="1110" >
<font-face units-per-em="2048" ascent="1536" descent="-512" />
<missing-glyph horiz-adv-x="677" />
<glyph unicode="&#xfb01;" horiz-adv-x="1472" d="M106 29v1372q0 29 29 29h746q10 0 19 -8.5t9 -20.5v-244q0 -8 -5 -18.5t-17 -10.5h-479v-264h362q29 0 29 -28v-244q0 -10 -7.5 -19.5t-17.5 -9.5h-366v-534q0 -29 -29 -29h-244q-29 0 -29 29zM1064 29v1372q0 29 29 29h244q29 0 29 -29v-1372q0 -29 -29 -29h-244 q-29 0 -29 29z" />
<glyph unicode="&#xfb02;" horiz-adv-x="1982" d="M106 29v1372q0 29 29 29h746q10 0 19 -8.5t9 -20.5v-244q0 -8 -5 -18.5t-17 -10.5h-479v-264h362q29 0 29 -28v-244q0 -10 -7.5 -19.5t-17.5 -9.5h-366v-534q0 -29 -29 -29h-244q-29 0 -29 29zM1064 29v1378q0 10 10.5 16.5t20.5 6.5h242q10 0 19.5 -6.5t9.5 -16.5v-1106 h548q12 0 21.5 -9t9.5 -20v-243q0 -12 -9 -20.5t-22 -8.5h-819q-12 0 -21.5 8t-9.5 21z" />
<glyph horiz-adv-x="0" />
<glyph unicode="&#xd;" horiz-adv-x="677" />
<glyph horiz-adv-x="0" />
<glyph horiz-adv-x="0" />
<glyph unicode=" "  horiz-adv-x="677" />
<glyph unicode="&#x09;" horiz-adv-x="677" />
<glyph unicode="&#xa0;" horiz-adv-x="677" />
<glyph unicode="!" horiz-adv-x="489" d="M94 25v258q0 29 29 28h242q12 0 21 -8t9 -20v-258q0 -10 -10 -17.5t-20 -7.5h-242q-10 0 -19.5 7t-9.5 18zM94 526v879q0 29 29 29h242q12 0 21 -8.5t9 -20.5v-879q0 -10 -10 -17t-20 -7h-242q-25 0 -29 24z" />
<glyph unicode="&#x22;" horiz-adv-x="798" d="M63 1022v379q0 29 29 29h242q29 0 28 -29v-379q0 -10 -9 -17.5t-19 -7.5h-242q-10 0 -19.5 7.5t-9.5 17.5zM436 1022v379q0 29 29 29h242q29 0 28 -29v-379q0 -10 -9 -17.5t-19 -7.5h-242q-10 0 -19.5 7.5t-9.5 17.5z" />
<glyph unicode="#" horiz-adv-x="1488" d="M63 326v243q0 29 29 29h180l72 272h-252q-12 0 -20.5 9.5t-8.5 19.5v244q0 29 29 28h330l57 222q6 29 29 28h244q12 0 22 -8t6 -20l-57 -222h299l59 222q6 29 29 28h242q12 0 23 -8t7 -20l-59 -222h74q29 0 28 -28v-244q0 -10 -8 -19.5t-20 -9.5h-152l-69 -272h221 q29 0 28 -29v-243q0 -10 -8 -19.5t-20 -9.5h-299l-70 -268q-8 -29 -31 -29h-241q-12 0 -22.5 8t-6.5 21l70 268h-301l-70 -268q-8 -29 -29 -29h-243q-12 0 -22.5 8t-6.5 21l70 268h-103q-12 0 -20.5 9t-8.5 20zM573 598h301l70 272h-299z" />
<glyph unicode="$" horiz-adv-x="923" d="M92 295v158q0 23 25 22h196q23 0 23 -22v-74h207q6 0 10 4l29 27q4 4 4 16v127q0 10 -4 14l-29 27q-4 4 -8 4h-299q-12 0 -21.5 3t-21.5 15l-92 93q-10 10 -14.5 21t-4.5 22v395q0 10 3 20.5t16 22.5l92 94q10 10 17 13t13 3h107v113q0 20 22 21h199q23 0 23 -21v-113h92 q8 0 20.5 -3t22.5 -13l94 -94q14 -16 16 -26.5t2 -20.5v-170q0 -23 -24 -23h-197q-10 0 -17 6.5t-7 16.5v84h-205q-8 0 -12 -4l-27 -29q-6 -6 -6 -16v-129q0 -6 6 -13l25 -24h317q6 0 15.5 -3t19.5 -14l94 -94q12 -12 15 -19t3 -24v-399q0 -25 -18 -43l-94 -94 q-18 -18 -43 -19h-92v-113q0 -8 -7.5 -14t-15.5 -6h-199q-8 0 -15 6t-7 14v113h-94q-6 0 -16.5 1t-26.5 18l-92 92q-12 12 -15.5 25.5t-3.5 25.5z" />
<glyph unicode="%" horiz-adv-x="1042" d="M63 1128v277q0 29 29 29h244q29 0 29 -29v-277q0 -10 -9.5 -17t-19.5 -7h-244q-10 0 -19.5 7t-9.5 17zM131 29l471 1376q10 29 31 29h241q12 0 22.5 -8.5t6.5 -20.5l-471 -1376q-4 -12 -10 -20.5t-19 -8.5h-241q-12 0 -23.5 8t-7.5 21zM678 25v276q0 12 9 20.5t20 8.5 h243q29 0 29 -29v-276q0 -10 -9 -17.5t-20 -7.5h-243q-10 0 -19.5 7t-9.5 18z" />
<glyph unicode="&#x26;" horiz-adv-x="1193" d="M92 188v404q0 16 21 37l82 69l-82 72q-20 20 -21 53v420q0 31 21 51l116 115q12 12 23.5 16.5t30.5 4.5h520q12 0 26.5 -4.5t26.5 -16.5l115 -115q16 -16 18 -31.5t2 -19.5v-207q0 -29 -28 -28h-240q-29 0 -29 28v94h-239q-6 0 -15 -8l-32 -32q-6 -6 -7 -15v-168 q0 -8 7 -14l28 -31h701q29 0 28 -28v-236q0 -29 -28 -29h-146v-381q0 -33 -20 -53l-115 -115q-20 -20 -41 -20h-549q-16 0 -37 20l-116 115q-20 20 -21 53zM401 342q0 -8 7 -14l28 -27h258v266h-239q-6 0 -15 -8l-32 -33q-6 -6 -7 -16v-168z" />
<glyph unicode="'" horiz-adv-x="425" d="M63 1022v379q0 29 29 29h242q29 0 28 -29v-379q0 -10 -9 -17.5t-19 -7.5h-242q-10 0 -19.5 7.5t-9.5 17.5z" />
<glyph unicode="(" horiz-adv-x="614" d="M106 195v1046q0 16 3.5 27.5t17.5 25.5l117 117q14 14 26.5 17.5t28.5 3.5h262v-302h-100q-8 0 -15 -6l-32 -32q-6 -6 -6 -11.5v-9.5v-727q0 -8 6 -14l28 -29h119v-301h-256q-39 0 -61 23l-117 114q-12 12 -16.5 26.5t-4.5 31.5z" />
<glyph unicode=")" horiz-adv-x="614" d="M53 0v301h119l29 29q6 6 6 14v727v9t-6 12l-33 32q-6 6 -14 6h-101v302h262q16 0 28.5 -3.5t27.5 -17.5l116 -117q14 -14 17.5 -25.5t3.5 -27.5v-1046q0 -16 -4 -30.5t-17 -27.5l-116 -114q-23 -23 -62 -23h-256z" />
<glyph unicode="*" horiz-adv-x="897" d="M72 850q-12 16 2 24l225 146l-223 143q-16 12 -4 27l92 131q10 18 26 6l175 -137l-13 221q0 18 19 19h161q18 0 19 -19l-12 -221l174 137q16 10 26 -6l95 -131q12 -16 -7 -27l-223 -143l227 -146q6 -4 6.5 -11t-3.5 -13l-95 -131q-4 -6 -11 -8t-13 2l-176 137l12 -223 q0 -16 -19 -17h-161q-6 0 -12.5 5.5t-6.5 11.5l13 223l-177 -137q-14 -8 -24 6z" />
<glyph unicode="+" horiz-adv-x="1052" d="M63 524v244q0 29 29 29h285v284q0 10 8 19.5t21 9.5h241q12 0 21.5 -9t9.5 -20v-284h287q10 0 17 -9.5t7 -19.5v-244q0 -10 -7 -19t-17 -9h-287v-287q0 -10 -9.5 -18.5t-21.5 -8.5h-241q-25 0 -29 27v287h-285q-12 0 -20.5 9t-8.5 19z" />
<glyph unicode="," horiz-adv-x="489" d="M94 -186v491q0 12 9.5 20.5t21.5 8.5h242q29 0 28 -29v-381q-2 -20 -26 -30l-236 -97q-18 -8 -28.5 -1t-10.5 18z" />
<glyph unicode="-" horiz-adv-x="847" d="M63 432v244q0 29 29 29h668q10 0 17 -9.5t7 -19.5v-244q0 -10 -7 -19.5t-17 -9.5h-668q-12 0 -20.5 9.5t-8.5 19.5z" />
<glyph unicode="." horiz-adv-x="487" d="M94 29v276q0 29 29 29h242q29 0 28 -29v-276q0 -10 -9 -17.5t-19 -7.5h-242q-10 0 -19.5 7t-9.5 18z" />
<glyph unicode="/" horiz-adv-x="817" d="M33 29l450 1374q6 29 29 29h244q10 0 21 -8.5t7 -20.5l-450 -1374q-8 -29 -29 -29h-244q-12 0 -22 8t-6 21z" />
<glyph unicode="0" horiz-adv-x="1101" d="M94 193v1046q0 31 23 53l114 115q23 23 54 23h530q12 0 23.5 -3.5t29.5 -19.5l115 -115q23 -23 23 -53v-1051q0 -29 -23 -51l-115 -117q-14 -14 -25.5 -17t-27.5 -3h-536q-6 0 -19.5 3t-28.5 17l-114 115q-23 23 -23 58zM395 350q0 -10 8 -20l27 -29h240l28 29q6 6 7 16 v727q0 8 -7 14l-34 35q-10 6 -15 6h-198q-10 0 -15 -6l-33 -35q-4 -6 -6 -8t-2 -10v-719z" />
<glyph unicode="1" horiz-adv-x="567" d="M27.5 1138.5q-7.5 10.5 1.5 28.5l96 236q12 27 29 27h276q10 0 20.5 -9.5t10.5 -19.5v-1372q0 -12 -9.5 -20.5t-21.5 -8.5h-242q-29 0 -28 29v1099h-115q-10 0 -17.5 10.5z" />
<glyph unicode="2" d="M104 29v606q0 8 2 16q4 20 21 37l115 115q10 10 19 13t18 5q8 2 18 2h381l29 29q6 8 6 16v205q0 10 -6 17l-33 32q-8 8 -15 8h-253v-104q0 -29 -29 -29h-244q-29 0 -29 29v215q0 31 23 53l115 115q20 20 53 21h530q33 0 54 -21l114 -115q10 -10 13.5 -19t5.5 -18 q2 -8 2 -16v-528q0 -12 -1 -23.5t-20 -30.5l-116 -114q-14 -14 -24.5 -17.5t-27.5 -3.5h-368q-4 0 -11 -6l-34 -35q-6 -6 -6 -14v-168h579q12 0 20.5 -9t8.5 -22v-241q0 -29 -29 -29h-852q-29 0 -29 29z" />
<glyph unicode="3" horiz-adv-x="1058" d="M72 188v215q0 12 9 20.5t19 8.5h244q29 0 29 -29v-102h258l28 27q6 4 7 14v166q0 4 -1 9t-8 9l-32 31q-8 8 -15 8h-213v299h234l28 29q6 6 7 14v166q0 10 -7 17l-34 32q-8 8 -15 8h-237v-104q0 -29 -29 -29h-244q-10 0 -19 8.5t-9 20.5v215q0 6 2 20.5t20 32.5l115 115 q20 20 53 21h514q12 0 25.5 -3.5t27.5 -17.5l115 -115q16 -18 19.5 -29.5t3.5 -23.5v-407q0 -12 -3 -24.5t-20 -29.5l-80 -82l80 -82q10 -10 16.5 -18t6.5 -18v-392q0 -10 -3 -23t-20 -30l-115 -115q-14 -14 -24 -17t-25 -3h-524q-16 0 -26.5 5t-20.5 15l-115 115 q-16 16 -19 28.5t-3 24.5z" />
<glyph unicode="4" horiz-adv-x="1128" d="M94 555v846q0 10 9.5 19.5t21.5 9.5h242q12 0 20 -9.5t8 -19.5v-692q0 -6 6 -15l29 -28h213v735q0 29 29 29h243q10 0 19.5 -8.5t9.5 -20.5v-735h107q10 0 19 -8.5t9 -20.5v-244q0 -10 -9 -19t-19 -9h-107v-336q0 -12 -9 -20.5t-20 -8.5h-243q-29 0 -29 29v336h-358 q-14 0 -26.5 4t-27.5 18l-114 115q-14 14 -18.5 25.5t-4.5 27.5z" />
<glyph unicode="5" d="M104 186v217q0 29 29 29h242q29 0 28 -29v-102h254q4 0 15 6l35 33q6 2 6 16v201q0 12 -8 21l-29 28h-383q-33 0 -53 21l-115 114q-14 14 -17.5 25.5t-3.5 28.5v604q0 12 9.5 21.5t21.5 9.5h850q10 0 19.5 -9.5t9.5 -21.5v-242q0 -12 -9.5 -20.5t-19.5 -8.5h-582v-163 q0 -8 9 -19l28 -31q6 -8 21 -8h362q31 0 54 -22l114 -115q16 -16 19.5 -26.5t3.5 -26.5v-529q0 -31 -23 -53l-114 -115q-20 -20 -54 -20h-526q-12 0 -27.5 3t-29.5 17l-115 115q-14 14 -17.5 25.5t-3.5 25.5z" />
<glyph unicode="6" horiz-adv-x="1079" d="M96 188v1049q0 35 23 57l114 115q10 10 21.5 15.5t32.5 5.5h514q16 0 28.5 -4.5t24.5 -16.5l115 -115q16 -18 19 -33.5t3 -19.5v-215q0 -29 -28 -29h-244q-29 0 -29 29v104h-231q-12 0 -21 -8l-32 -30q-8 -6 -9 -25v-160q0 -8 6 -14l29 -27h369q14 0 24.5 -3t28.5 -19 l115 -115q16 -18 19 -33.5t3 -19.5v-490q0 -6 -3 -20t-19 -31l-115 -115q-20 -20 -49 -20h-533q-14 0 -22 6t-17 14l-114 115q-23 23 -23 53zM397 342q0 -8 6 -14l27 -25h225l29 29q6 6 6 12v168q0 8 -6 14l-39 39h-192q-6 0 -15 -8l-35 -33q-6 -6 -6 -16v-166z" />
<glyph unicode="7" horiz-adv-x="976" d="M45 1157v244q0 10 8 19.5t21 9.5h821q12 0 20.5 -9.5t8.5 -19.5v-250l-416 -1151h-367q0 6 2 12t4 11l414 1105h-487q-29 0 -29 29z" />
<glyph unicode="8" horiz-adv-x="1077" d="M92 188v392q0 16 21 36l82 82l-82 82q-16 16 -18.5 26.5t-2.5 27.5v409q0 18 5 29.5t16 21.5l116 115q14 14 25.5 17.5t28.5 3.5h499q16 0 31.5 -1.5t36.5 -19.5l115 -115q16 -16 18 -31.5t2 -19.5v-409q0 -16 -4 -28.5t-16 -25.5l-82 -82l82 -82q20 -20 20 -36v-392 q0 -33 -20 -53l-115 -115q-20 -20 -41 -20h-543q-16 0 -37 20l-116 115q-12 12 -16.5 25.5t-4.5 27.5zM393 342q0 -8 6 -14l29 -27h221l29 27q6 6 6 14v166q0 10 -6 16l-33 33q-8 8 -16 8h-183q-6 0 -14 -8l-33 -33q-6 -6 -6 -16v-166zM393 907q0 -8 6 -14l29 -29h221l29 29 q6 6 6 14v168q0 10 -6 15l-33 32q-8 8 -14 8h-185q-6 0 -14 -8l-33 -32q-6 -6 -6 -15v-168z" />
<glyph unicode="9" horiz-adv-x="1077" d="M88 188v215q0 29 29 29h241q12 0 21.5 -8t9.5 -21v-102h234q12 0 18 6l33 33q6 6 6 16v160q0 14 -6 21l-29 26h-369q-16 0 -29.5 6t-23.5 17l-114 114q-14 14 -17.5 25.5t-3.5 28.5v489q0 31 21 51l114 115q20 20 53 21h531q16 0 37 -21l117 -115q20 -20 20 -53v-1053 q0 -35 -20 -53l-117 -115q-20 -20 -53 -20h-515q-25 0 -34 5t-19 15l-114 115q-14 14 -17.5 26.5t-3.5 26.5zM387 918q0 -6 8 -15l31 -33q4 -4 8 -4l193 -2q6 0 8 2l6 6l33 33q6 6 6 17v161q0 12 -6 19l-27 24h-223l-29 -28q-8 -6 -8 -17v-163z" />
<glyph unicode=":" horiz-adv-x="489" d="M94 27v276q0 12 9.5 20.5t21.5 8.5h242q29 0 28 -29v-276q0 -10 -9 -17.5t-19 -7.5h-242q-25 0 -31 25zM94 547v276q0 10 9.5 19.5t21.5 9.5h242q12 0 20 -9t8 -20v-276q0 -10 -9 -17.5t-19 -7.5h-242q-10 0 -20.5 7.5t-10.5 17.5z" />
<glyph unicode=";" horiz-adv-x="489" d="M94 -174v491q0 12 9.5 20.5t21.5 8.5h242q29 0 28 -29v-380q0 -18 -26 -31l-236 -96q-18 -8 -28.5 -1t-10.5 17zM94 561v277q0 10 9.5 19t19.5 9h244q12 0 20 -9t8 -19v-277q0 -10 -9 -17t-19 -7h-244q-10 0 -19.5 7t-9.5 17z" />
<glyph unicode="&#x3c;" horiz-adv-x="937" d="M74 508v270q0 4 4 15.5t20 19.5l727 356q18 10 28.5 0t10.5 -24v-264q0 -12 -9 -22.5t-19 -14.5l-398 -201l398 -201q10 -4 19 -14t9 -22v-265q0 -14 -10 -24.5t-29 0.5l-727 356q-16 8 -20 16.5t-4 18.5z" />
<glyph unicode="=" horiz-adv-x="1093" d="M84 383v242q0 29 29 28h868q29 0 29 -28v-242q0 -12 -8.5 -21.5t-20.5 -9.5h-868q-12 0 -20.5 9.5t-8.5 21.5zM84 821v242q0 29 29 29h868q29 0 29 -29v-242q0 -12 -8.5 -21t-20.5 -9h-868q-12 0 -20.5 9t-8.5 21z" />
<glyph unicode="&#x3e;" horiz-adv-x="937" d="M74 141v265q0 12 9 22t19 14l398 201l-398 201q-10 4 -19 14t-9 23v264q0 14 10 24.5t29 -0.5l727 -356q16 -8 20 -19.5t4 -15.5v-270q0 -10 -4 -18.5t-20 -16.5l-727 -356q-18 -10 -28.5 0t-10.5 24z" />
<glyph unicode="?" horiz-adv-x="1048" d="M66 1012v227q0 33 20 53l115 115q16 16 35 20q8 2 18 3h522q16 0 32.5 -5.5t29.5 -17.5l114 -115q8 -8 15.5 -20t7.5 -25v-725q0 -12 -9.5 -20t-21.5 -8h-291v-78q0 -12 -9 -20.5t-19 -8.5h-244q-29 0 -29 29v348q0 12 8.5 21.5t20.5 9.5h293v290q0 8 -6 15l-29 28h-238 l-28 -28q-6 -4 -6 -15v-73q0 -12 -9.5 -21.5t-21.5 -9.5h-242q-12 0 -20 9t-8 22zM352 25v256q0 12 8.5 21t20.5 9h244q12 0 20 -9t8 -21v-256q0 -10 -9 -17.5t-19 -7.5h-244q-10 0 -19.5 7t-9.5 18z" />
<glyph unicode="@" horiz-adv-x="1605" d="M127 -78v1127q0 6 2 15t12 19l78 78q10 10 19.5 13.5t15.5 3.5h1098q18 0 34 -17l78 -78q6 -6 11.5 -18t5.5 -18v-938h-922q-6 -2 -12 0q-12 4 -23 14l-80 78q-14 14 -14 37v505q-2 4 0 13q4 14 14 24l78 78q6 6 13.5 8t11.5 4q6 2 12 2h479q6 0 13 -2q4 -2 10 -4t14 -8 l78 -78q6 -6 8 -13t4 -11q2 -6 2 -11v-432h109v623q0 6 -4 10l-23 23q-4 4 -10 4h-870q-6 0 -11 -4l-24 -23q-4 -4 -4 -10v-909q0 -8 4 -11l20 -18h805v-205h-903q-23 0 -37 14l-78 78q-10 10 -12 18.5t-2 18.5zM635 342q0 -6 4 -10l18 -19h283l18 19q4 4 5 12v287 q0 8 -5 12l-22 23l-8 4h-256q-6 0 -10 -4l-23 -23q-4 -6 -4 -12v-289z" />
<glyph unicode="A" horiz-adv-x="1140" d="M14 29l406 1372q10 29 29 29h243q18 0 29 -31l405 -1370q1 -3 1 -6q0 -7 -6 -13q-9 -10 -25 -10h-234q-12 0 -22.5 9t-14.5 20l-49 166h-411l-50 -166q-4 -10 -14 -19.5t-22 -9.5h-234q-19 0 -27 9q-5 6 -5 13q0 3 1 7zM446 471h248l-123 420z" />
<glyph unicode="B" horiz-adv-x="1069" d="M106 29v1372q0 29 29 29h651q14 0 26.5 -4.5t27.5 -18.5l114 -115q16 -18 19.5 -29.5t3.5 -23.5v-405q0 -31 -23 -54l-80 -82l80 -80q23 -23 23 -40v-388q0 -31 -23 -53l-114 -114q-10 -10 -21.5 -16.5t-32.5 -6.5h-651q-29 0 -29 29zM408 301h233l29 29q6 8 6 14v166 q0 8 -6 14l-35 35q-6 6 -12 6h-215v-264zM408 866h233l29 29q6 6 6 14v164q0 8 -6 14l-35 35q-6 6 -12 6h-215v-262z" />
<glyph unicode="C" horiz-adv-x="1077" d="M96 190v1049q0 4 2 20.5t19 32.5l114 115q16 16 28.5 19.5t25.5 3.5h530q14 0 26.5 -4.5t26.5 -18.5l115 -115q14 -14 18.5 -25.5t4.5 -27.5v-219q0 -10 -9.5 -19.5t-19.5 -9.5h-244q-12 0 -20 9.5t-8 19.5v53q0 8 -7 14l-34 35q-6 6 -15 6h-198q-8 0 -15 -6l-33 -35 q-8 -10 -8 -18v-723q0 -10 8 -16l29 -29h238l28 29q6 6 7 14v62q0 10 8 19t20 9h244q10 0 19.5 -9t9.5 -19v-232q0 -8 -3.5 -14t-19.5 -23l-115 -114q-14 -14 -28.5 -18.5t-26.5 -4.5h-528q-10 0 -24.5 4t-29.5 19l-114 114q-16 16 -18.5 29.5t-2.5 23.5z" />
<glyph unicode="D" horiz-adv-x="1073" d="M106 29v1372q0 29 29 29h651q12 0 25.5 -4.5t28.5 -18.5l114 -115q14 -14 18.5 -28.5t4.5 -24.5v-1049q0 -10 -3 -23t-20 -30l-114 -114q-23 -23 -54 -23h-651q-29 0 -29 29zM408 301h233l29 29q6 8 6 14v729q0 8 -6 14l-35 35q-4 6 -14 6h-213v-827z" />
<glyph unicode="E" horiz-adv-x="958" d="M106 29v1372q0 29 29 29h746q10 0 19 -8.5t9 -20.5v-244q0 -12 -9 -20.5t-19 -8.5h-473v-262h362q29 0 29 -28v-244q0 -29 -29 -29h-362v-264h473q10 0 19 -8t9 -21v-243q0 -12 -9 -20.5t-19 -8.5h-746q-29 0 -29 29z" />
<glyph unicode="F" horiz-adv-x="958" d="M106 29v1372q0 29 29 29h746q10 0 19 -8.5t9 -20.5v-244q0 -8 -5 -18.5t-17 -10.5h-479v-264h362q29 0 29 -28v-244q0 -10 -7.5 -19.5t-17.5 -9.5h-366v-534q0 -29 -29 -29h-244q-29 0 -29 29z" />
<glyph unicode="G" horiz-adv-x="1103" d="M96 190v1049q0 18 5 29.5t18 23.5l114 115q10 10 20.5 16.5t33.5 6.5h530q12 0 23.5 -3.5t29.5 -19.5l115 -115q16 -18 19.5 -29.5t3.5 -23.5v-219q0 -10 -9.5 -19.5t-21.5 -9.5h-242q-12 0 -20 9.5t-8 19.5v53q0 8 -7 14l-34 35q-4 6 -15 6h-198q-8 0 -15 -6l-32 -35 q-8 -10 -9 -18v-723q0 -8 9 -16l26 -29h240l28 29q6 8 7 14v180h-136q-12 0 -20 9.5t-8 19.5v244q0 29 28 28h406q12 0 21.5 -8t9.5 -20v-619q0 -12 -6.5 -21.5t-16.5 -19.5l-115 -114q-18 -18 -34.5 -20.5t-18.5 -2.5h-530q-31 0 -54 23l-114 114q-18 18 -20.5 28.5 t-2.5 24.5z" />
<glyph unicode="H" horiz-adv-x="1122" d="M106 29v1372q0 29 29 29h244q10 0 19.5 -8.5t9.5 -20.5v-535h307v535q0 12 9 20.5t19 8.5h244q29 0 29 -29v-1372q0 -29 -29 -29h-244q-10 0 -19 8t-9 21v536h-307v-536q0 -12 -9.5 -20.5t-19.5 -8.5h-244q-29 0 -29 29z" />
<glyph unicode="I" horiz-adv-x="514" d="M106 29v1372q0 29 29 29h244q29 0 29 -29v-1372q0 -29 -29 -29h-244q-29 0 -29 29z" />
<glyph unicode="J" horiz-adv-x="1079" d="M70 174v322q0 29 28 28h244q10 0 19.5 -8t9.5 -20v-152q0 -10 6 -14l29 -29h237l29 29q6 6 6 14v1061q0 10 9 17.5t20 7.5h243q10 0 19.5 -7.5t9.5 -17.5v-1215q0 -18 -6 -30.5t-17 -22.5l-114 -117q-14 -14 -27.5 -17t-21.5 -3h-539q-8 0 -20.5 3t-26.5 17l-117 117 q-20 20 -20 37z" />
<glyph unicode="K" d="M106 29v1372q0 10 8.5 19.5t20.5 9.5h244q12 0 20.5 -9.5t8.5 -19.5v-445l303 445q8 10 16 19.5t21 9.5h309q16 0 28.5 -12.5t1.5 -26.5l-378 -525l393 -829q3 -7 3 -12q-1 -9 -7 -15q-12 -10 -23 -10h-272q-12 0 -22.5 9t-14.5 20l-252 567l-106 -147v-420 q0 -29 -29 -29h-244q-29 0 -29 29z" />
<glyph unicode="L" horiz-adv-x="1024" d="M106 29v1378q0 10 10.5 16.5t20.5 6.5h242q10 0 19.5 -6.5t9.5 -16.5v-1106h548q12 0 21.5 -9t9.5 -20v-243q0 -12 -9 -20.5t-22 -8.5h-819q-12 0 -21.5 8t-9.5 21z" />
<glyph unicode="M" horiz-adv-x="1320" d="M74 29l55 1372q0 10 6 19.5t17 9.5h260q25 0 30 -27l185 -793l22 -172l17 172l215 793q6 27 30 27h260q12 0 17.5 -9.5t5.5 -19.5l53 -1372q0 -29 -28 -29h-242q-12 0 -21.5 8t-9.5 21l-8 520l-158 -520q-4 -10 -14 -19.5t-23 -9.5h-163q-12 0 -23.5 8t-15.5 21l-156 520 l-10 -520q0 -29 -29 -29h-244q-10 0 -19 8t-9 21z" />
<glyph unicode="N" horiz-adv-x="1153" d="M106 29v1372q0 29 29 29h299q20 0 31 -29l270 -787l10 -22v809q0 12 9.5 20.5t19.5 8.5h244q29 0 29 -29v-1372q0 -10 -8.5 -19.5t-20.5 -9.5h-324q-12 0 -22 9t-15 20l-249 686v-686q0 -10 -9.5 -19.5t-19.5 -9.5h-244q-12 0 -20.5 9t-8.5 20z" />
<glyph unicode="O" horiz-adv-x="1105" d="M98 190v1049q0 12 6.5 27.5t16.5 25.5l115 115q14 14 27 18.5t26 4.5h528q16 0 25.5 -2.5t27.5 -20.5l117 -115q8 -8 14.5 -20t6.5 -33v-1049q0 -10 -4.5 -25t-16.5 -28l-117 -114q-23 -23 -47 -23h-534q-16 0 -27.5 4t-25.5 19l-115 114q-23 23 -23 53zM399 344 q0 -6 7 -14l28 -29h238l28 29q6 6 7 14v729q0 10 -7 17l-32 32q-6 6 -15 6h-198q-6 0 -15 -6l-34 -32q-6 -6 -7 -17v-729z" />
<glyph unicode="P" horiz-adv-x="1056" d="M106 29v1372q0 29 29 29h651q16 0 28.5 -4.5t25.5 -16.5l114 -117q16 -18 19.5 -30.5t3.5 -22.5v-522q0 -10 -2 -23.5t-21 -31.5l-114 -117q-14 -14 -27.5 -17.5t-21.5 -3.5h-383v-495q0 -10 -9.5 -19.5t-21.5 -9.5h-242q-12 0 -20.5 9t-8.5 20zM408 825h210q10 0 17 6 l35 33q6 6 6 13v196q0 8 -6 14l-35 35q-6 6 -17 6h-210v-303z" />
<glyph unicode="Q" horiz-adv-x="1089" d="M94 190v1049q0 16 4 27.5t19 25.5l114 115q16 16 26.5 19.5t27.5 3.5h528q16 0 27.5 -4.5t25.5 -18.5l117 -115q16 -16 18.5 -32.5t2.5 -20.5v-1049q0 -10 -4.5 -25t-16.5 -28l-43 -43l82 -194q2 -5 2 -9q0 -7 -5 -13q-9 -11 -24 -11h-274q-12 0 -22.5 9t-14.5 20 l-45 104h-354q-18 0 -29.5 5t-24.5 18l-114 114q-23 23 -23 53zM395 346q0 -8 6 -16l29 -29h238l28 29q6 6 6 16v727q0 10 -6 17l-32 32q-6 6 -15 6h-198q-8 0 -15 -6l-35 -32q-6 -6 -6 -15v-729z" />
<glyph unicode="R" horiz-adv-x="1069" d="M106 29v1372q0 12 9.5 20.5t19.5 8.5h651q33 0 54 -21l116 -117q18 -18 19.5 -31.5t1.5 -25.5v-516q0 -20 -4 -30.5t-17 -22.5l-122 -121l208 -516q2 -5 2 -10t-2 -9q-4 -10 -20 -10h-283q-12 0 -22 9t-15 20l-200 499h-94v-499q0 -10 -8.5 -19.5t-20.5 -9.5h-244 q-10 0 -19.5 9t-9.5 20zM408 827h215q8 0 14 7l33 32q6 6 6 17v186q0 14 -6 21l-31 30q-6 6 -12 7t-15 1h-204v-301z" />
<glyph unicode="S" horiz-adv-x="1093" d="M90 195v198q0 12 9.5 20.5t21.5 8.5h241q29 0 29 -29v-92h258q4 0 10 6l35 33q6 6 6 14v156q0 12 -10 20l-31 29q-6 6 -10 6h-368q-31 0 -54 23l-114 114q-10 10 -16.5 22.5t-6.5 31.5v483q0 31 23 53l114 115q16 16 28.5 19.5t25.5 3.5h530q16 0 27.5 -4.5t25.5 -18.5 l115 -115q23 -23 22 -55v-211q0 -12 -9 -20.5t-21 -8.5h-242q-29 0 -29 29v102h-254q-8 0 -14 -6l-33 -32q-8 -8 -8 -17v-164q0 -6 8 -14l29 -29h383q23 0 31 -4t22 -18l115 -115q16 -18 19 -28.5t3 -24.5v-486q0 -10 -4 -24t-18 -29l-115 -114q-10 -10 -26.5 -16.5 t-26.5 -6.5h-530q-31 0 -54 23l-114 114q-10 10 -16.5 26.5t-6.5 31.5z" />
<glyph unicode="T" horiz-adv-x="954" d="M37 1157v242q0 12 9 21.5t22 9.5h819q12 0 21.5 -9.5t9.5 -21.5v-242q0 -12 -9.5 -20.5t-21.5 -8.5h-260v-1103q0 -10 -9.5 -17.5t-19.5 -7.5h-242q-10 0 -19 7t-9 18v1103h-260q-12 0 -21.5 8.5t-9.5 20.5z" />
<glyph unicode="U" d="M100 190v1211q0 12 9.5 20.5t19.5 8.5h244q29 0 28 -29v-1057q0 -6 1 -8t6 -6l28 -29h238l28 29q8 8 9 16v1055q0 29 28 29h242q29 0 29 -29v-1211q0 -33 -21 -53l-115 -114q-12 -12 -23 -17.5t-30 -5.5h-530q-16 0 -28.5 4t-24.5 16l-115 117q-16 16 -19.5 28.5 t-3.5 24.5z" />
<glyph unicode="V" horiz-adv-x="1091" d="M14 1393q-1 4 -1 8q-1 9 5 17q8 12 21 12h256q25 0 31 -29l184 -787l16 -122l21 122l217 787q6 29 31 29h256q12 0 20 -14q5 -9 5 -16q0 -4 -1 -7l-356 -1362q-4 -12 -15.5 -21.5t-23.5 -9.5h-272q-12 0 -22.5 9t-14.5 22z" />
<glyph unicode="W" horiz-adv-x="1292" d="M59 1401q-2 10 7.5 19.5t21.5 9.5h242q12 0 21 -9.5t9 -19.5l50 -699l116 324q4 10 14.5 19.5t22.5 9.5h164q29 0 39 -29l115 -324l51 699q0 10 8 19.5t21 9.5h243q10 0 20.5 -9.5t8.5 -19.5l-111 -1372q0 -10 -7 -19.5t-23 -9.5h-252q-23 0 -29 29l-143 516l-15 102 l-12 -102l-160 -516q-10 -29 -30 -29h-256q-10 0 -18.5 10t-8.5 21z" />
<glyph unicode="X" horiz-adv-x="1101" d="M25 39l354 727l-313 627q-8 16 1 26.5t23 10.5h256q12 0 18.5 -8.5t12.5 -20.5l172 -307l174 307q6 12 12 20.5t19 8.5h256q10 0 22 -10.5t2 -26.5l-313 -627l354 -725q4 -8 4 -15q0 -8 -4 -14q-8 -12 -24 -12h-263q-12 0 -22 9t-16 22l-201 397l-199 -397 q-6 -12 -16 -21.5t-23 -9.5h-262q-11 0 -23 10q-6 5 -6 13q0 7 5 16z" />
<glyph unicode="Y" horiz-adv-x="1081" d="M8 1391q-4 7 -4 13.5t4 13.5q8 12 27 12h264q12 0 22.5 -9.5t14.5 -19.5l205 -406l204 406q4 10 14.5 19.5t22.5 9.5h265q18 0 26 -12q4 -7 4 -13.5t-4 -13.5l-381 -734v-628q0 -12 -9 -20.5t-19 -8.5h-246q-10 0 -19.5 8t-9.5 21v628z" />
<glyph unicode="Z" horiz-adv-x="1005" d="M63 31v243q0 10 7 21l491 833h-469q-10 0 -19.5 8.5t-9.5 20.5v244q0 12 9.5 20.5t19.5 8.5h821q29 0 29 -29v-244q0 -8 -8 -20l-496 -836h475q29 0 29 -29v-241q0 -12 -8 -21.5t-21 -9.5h-821q-10 0 -19.5 9t-9.5 22z" />
<glyph unicode="\" horiz-adv-x="825" d="M35 1405q-4 10 5 19.5t23 9.5h244q20 0 29 -29l452 -1376q4 -12 -7 -20.5t-21 -8.5h-244q-23 0 -29 29z" />
<glyph unicode="^" horiz-adv-x="1189" d="M67.5 649q-8.5 10 0.5 27l356 729q6 10 12 17.5t23 7.5h270q16 0 22.5 -7.5t12.5 -17.5l356 -729q8 -16 0 -26.5t-26 -10.5h-263q-12 0 -23 9t-15 20l-199 399l-199 -399q-4 -10 -15 -19.5t-24 -9.5h-262q-18 0 -26.5 10z" />
<glyph unicode="a" horiz-adv-x="1140" d="M14 29l406 1372q10 29 29 29h243q18 0 29 -31l405 -1370q1 -3 1 -6q0 -7 -6 -13q-9 -10 -25 -10h-234q-12 0 -22.5 9t-14.5 20l-49 166h-411l-50 -166q-4 -10 -14 -19.5t-22 -9.5h-234q-19 0 -27 9q-5 6 -5 13q0 3 1 7zM446 471h248l-123 420z" />
<glyph unicode="b" horiz-adv-x="1069" d="M106 29v1372q0 29 29 29h651q14 0 26.5 -4.5t27.5 -18.5l114 -115q16 -18 19.5 -29.5t3.5 -23.5v-405q0 -31 -23 -54l-80 -82l80 -80q23 -23 23 -40v-388q0 -31 -23 -53l-114 -114q-10 -10 -21.5 -16.5t-32.5 -6.5h-651q-29 0 -29 29zM408 301h233l29 29q6 8 6 14v166 q0 8 -6 14l-35 35q-6 6 -12 6h-215v-264zM408 866h233l29 29q6 6 6 14v164q0 8 -6 14l-35 35q-6 6 -12 6h-215v-262z" />
<glyph unicode="c" horiz-adv-x="1077" d="M96 190v1049q0 4 2 20.5t19 32.5l114 115q16 16 28.5 19.5t25.5 3.5h530q14 0 26.5 -4.5t26.5 -18.5l115 -115q14 -14 18.5 -25.5t4.5 -27.5v-219q0 -10 -9.5 -19.5t-19.5 -9.5h-244q-12 0 -20 9.5t-8 19.5v53q0 8 -7 14l-34 35q-6 6 -15 6h-198q-8 0 -15 -6l-33 -35 q-8 -10 -8 -18v-723q0 -10 8 -16l29 -29h238l28 29q6 6 7 14v62q0 10 8 19t20 9h244q10 0 19.5 -9t9.5 -19v-232q0 -8 -3.5 -14t-19.5 -23l-115 -114q-14 -14 -28.5 -18.5t-26.5 -4.5h-528q-10 0 -24.5 4t-29.5 19l-114 114q-16 16 -18.5 29.5t-2.5 23.5z" />
<glyph unicode="d" horiz-adv-x="1073" d="M106 29v1372q0 29 29 29h651q12 0 25.5 -4.5t28.5 -18.5l114 -115q14 -14 18.5 -28.5t4.5 -24.5v-1049q0 -10 -3 -23t-20 -30l-114 -114q-23 -23 -54 -23h-651q-29 0 -29 29zM408 301h233l29 29q6 8 6 14v729q0 8 -6 14l-35 35q-4 6 -14 6h-213v-827z" />
<glyph unicode="e" horiz-adv-x="958" d="M106 29v1372q0 29 29 29h746q10 0 19 -8.5t9 -20.5v-244q0 -12 -9 -20.5t-19 -8.5h-473v-262h362q29 0 29 -28v-244q0 -29 -29 -29h-362v-264h473q10 0 19 -8t9 -21v-243q0 -12 -9 -20.5t-19 -8.5h-746q-29 0 -29 29z" />
<glyph unicode="f" horiz-adv-x="958" d="M106 29v1372q0 29 29 29h746q10 0 19 -8.5t9 -20.5v-244q0 -8 -5 -18.5t-17 -10.5h-479v-264h362q29 0 29 -28v-244q0 -10 -7.5 -19.5t-17.5 -9.5h-366v-534q0 -29 -29 -29h-244q-29 0 -29 29z" />
<glyph unicode="g" horiz-adv-x="1103" d="M96 190v1049q0 18 5 29.5t18 23.5l114 115q10 10 20.5 16.5t33.5 6.5h530q12 0 23.5 -3.5t29.5 -19.5l115 -115q16 -18 19.5 -29.5t3.5 -23.5v-219q0 -10 -9.5 -19.5t-21.5 -9.5h-242q-12 0 -20 9.5t-8 19.5v53q0 8 -7 14l-34 35q-4 6 -15 6h-198q-8 0 -15 -6l-32 -35 q-8 -10 -9 -18v-723q0 -8 9 -16l26 -29h240l28 29q6 8 7 14v180h-136q-12 0 -20 9.5t-8 19.5v244q0 29 28 28h406q12 0 21.5 -8t9.5 -20v-619q0 -12 -6.5 -21.5t-16.5 -19.5l-115 -114q-18 -18 -34.5 -20.5t-18.5 -2.5h-530q-31 0 -54 23l-114 114q-18 18 -20.5 28.5 t-2.5 24.5z" />
<glyph unicode="h" horiz-adv-x="1122" d="M106 29v1372q0 29 29 29h244q10 0 19.5 -8.5t9.5 -20.5v-535h307v535q0 12 9 20.5t19 8.5h244q29 0 29 -29v-1372q0 -29 -29 -29h-244q-10 0 -19 8t-9 21v536h-307v-536q0 -12 -9.5 -20.5t-19.5 -8.5h-244q-29 0 -29 29z" />
<glyph unicode="i" horiz-adv-x="514" d="M106 29v1372q0 29 29 29h244q29 0 29 -29v-1372q0 -29 -29 -29h-244q-29 0 -29 29z" />
<glyph unicode="j" horiz-adv-x="1079" d="M70 174v322q0 29 28 28h244q10 0 19.5 -8t9.5 -20v-152q0 -10 6 -14l29 -29h237l29 29q6 6 6 14v1061q0 10 9 17.5t20 7.5h243q10 0 19.5 -7.5t9.5 -17.5v-1215q0 -18 -6 -30.5t-17 -22.5l-114 -117q-14 -14 -27.5 -17t-21.5 -3h-539q-8 0 -20.5 3t-26.5 17l-117 117 q-20 20 -20 37z" />
<glyph unicode="k" d="M106 29v1372q0 10 8.5 19.5t20.5 9.5h244q12 0 20.5 -9.5t8.5 -19.5v-445l303 445q8 10 16 19.5t21 9.5h309q16 0 28.5 -12.5t1.5 -26.5l-378 -525l393 -829q3 -7 3 -12q-1 -9 -7 -15q-12 -10 -23 -10h-272q-12 0 -22.5 9t-14.5 20l-252 567l-106 -147v-420 q0 -29 -29 -29h-244q-29 0 -29 29z" />
<glyph unicode="l" horiz-adv-x="1024" d="M106 29v1378q0 10 10.5 16.5t20.5 6.5h242q10 0 19.5 -6.5t9.5 -16.5v-1106h548q12 0 21.5 -9t9.5 -20v-243q0 -12 -9 -20.5t-22 -8.5h-819q-12 0 -21.5 8t-9.5 21z" />
<glyph unicode="m" horiz-adv-x="1320" d="M74 29l55 1372q0 10 6 19.5t17 9.5h260q25 0 30 -27l185 -793l22 -172l17 172l215 793q6 27 30 27h260q12 0 17.5 -9.5t5.5 -19.5l53 -1372q0 -29 -28 -29h-242q-12 0 -21.5 8t-9.5 21l-8 520l-158 -520q-4 -10 -14 -19.5t-23 -9.5h-163q-12 0 -23.5 8t-15.5 21l-156 520 l-10 -520q0 -29 -29 -29h-244q-10 0 -19 8t-9 21z" />
<glyph unicode="n" horiz-adv-x="1153" d="M106 29v1372q0 29 29 29h299q20 0 31 -29l270 -787l10 -22v809q0 12 9.5 20.5t19.5 8.5h244q29 0 29 -29v-1372q0 -10 -8.5 -19.5t-20.5 -9.5h-324q-12 0 -22 9t-15 20l-249 686v-686q0 -10 -9.5 -19.5t-19.5 -9.5h-244q-12 0 -20.5 9t-8.5 20z" />
<glyph unicode="o" horiz-adv-x="1105" d="M98 190v1049q0 12 6.5 27.5t16.5 25.5l115 115q14 14 27 18.5t26 4.5h528q16 0 25.5 -2.5t27.5 -20.5l117 -115q8 -8 14.5 -20t6.5 -33v-1049q0 -10 -4.5 -25t-16.5 -28l-117 -114q-23 -23 -47 -23h-534q-16 0 -27.5 4t-25.5 19l-115 114q-23 23 -23 53zM399 344 q0 -6 7 -14l28 -29h238l28 29q6 6 7 14v729q0 10 -7 17l-32 32q-6 6 -15 6h-198q-6 0 -15 -6l-34 -32q-6 -6 -7 -17v-729z" />
<glyph unicode="p" horiz-adv-x="1056" d="M106 29v1372q0 29 29 29h651q16 0 28.5 -4.5t25.5 -16.5l114 -117q16 -18 19.5 -30.5t3.5 -22.5v-522q0 -10 -2 -23.5t-21 -31.5l-114 -117q-14 -14 -27.5 -17.5t-21.5 -3.5h-383v-495q0 -10 -9.5 -19.5t-21.5 -9.5h-242q-12 0 -20.5 9t-8.5 20zM408 825h210q10 0 17 6 l35 33q6 6 6 13v196q0 8 -6 14l-35 35q-6 6 -17 6h-210v-303z" />
<glyph unicode="q" horiz-adv-x="1089" d="M94 190v1049q0 16 4 27.5t19 25.5l114 115q16 16 26.5 19.5t27.5 3.5h528q16 0 27.5 -4.5t25.5 -18.5l117 -115q16 -16 18.5 -32.5t2.5 -20.5v-1049q0 -10 -4.5 -25t-16.5 -28l-43 -43l82 -194q2 -5 2 -9q0 -7 -5 -13q-9 -11 -24 -11h-274q-12 0 -22.5 9t-14.5 20 l-45 104h-354q-18 0 -29.5 5t-24.5 18l-114 114q-23 23 -23 53zM395 346q0 -8 6 -16l29 -29h238l28 29q6 6 6 16v727q0 10 -6 17l-32 32q-6 6 -15 6h-198q-8 0 -15 -6l-35 -32q-6 -6 -6 -15v-729z" />
<glyph unicode="r" horiz-adv-x="1069" d="M106 29v1372q0 12 9.5 20.5t19.5 8.5h651q33 0 54 -21l116 -117q18 -18 19.5 -31.5t1.5 -25.5v-516q0 -20 -4 -30.5t-17 -22.5l-122 -121l208 -516q2 -5 2 -10t-2 -9q-4 -10 -20 -10h-283q-12 0 -22 9t-15 20l-200 499h-94v-499q0 -10 -8.5 -19.5t-20.5 -9.5h-244 q-10 0 -19.5 9t-9.5 20zM408 827h215q8 0 14 7l33 32q6 6 6 17v186q0 14 -6 21l-31 30q-6 6 -12 7t-15 1h-204v-301z" />
<glyph unicode="s" horiz-adv-x="1093" d="M90 195v198q0 12 9.5 20.5t21.5 8.5h241q29 0 29 -29v-92h258q4 0 10 6l35 33q6 6 6 14v156q0 12 -10 20l-31 29q-6 6 -10 6h-368q-31 0 -54 23l-114 114q-10 10 -16.5 22.5t-6.5 31.5v483q0 31 23 53l114 115q16 16 28.5 19.5t25.5 3.5h530q16 0 27.5 -4.5t25.5 -18.5 l115 -115q23 -23 22 -55v-211q0 -12 -9 -20.5t-21 -8.5h-242q-29 0 -29 29v102h-254q-8 0 -14 -6l-33 -32q-8 -8 -8 -17v-164q0 -6 8 -14l29 -29h383q23 0 31 -4t22 -18l115 -115q16 -18 19 -28.5t3 -24.5v-486q0 -10 -4 -24t-18 -29l-115 -114q-10 -10 -26.5 -16.5 t-26.5 -6.5h-530q-31 0 -54 23l-114 114q-10 10 -16.5 26.5t-6.5 31.5z" />
<glyph unicode="t" horiz-adv-x="954" d="M37 1157v242q0 12 9 21.5t22 9.5h819q12 0 21.5 -9.5t9.5 -21.5v-242q0 -12 -9.5 -20.5t-21.5 -8.5h-260v-1103q0 -10 -9.5 -17.5t-19.5 -7.5h-242q-10 0 -19 7t-9 18v1103h-260q-12 0 -21.5 8.5t-9.5 20.5z" />
<glyph unicode="u" d="M100 190v1211q0 12 9.5 20.5t19.5 8.5h244q29 0 28 -29v-1057q0 -6 1 -8t6 -6l28 -29h238l28 29q8 8 9 16v1055q0 29 28 29h242q29 0 29 -29v-1211q0 -33 -21 -53l-115 -114q-12 -12 -23 -17.5t-30 -5.5h-530q-16 0 -28.5 4t-24.5 16l-115 117q-16 16 -19.5 28.5 t-3.5 24.5z" />
<glyph unicode="v" horiz-adv-x="1091" d="M14 1393q-1 4 -1 8q-1 9 5 17q8 12 21 12h256q25 0 31 -29l184 -787l16 -122l21 122l217 787q6 29 31 29h256q12 0 20 -14q5 -9 5 -16q0 -4 -1 -7l-356 -1362q-4 -12 -15.5 -21.5t-23.5 -9.5h-272q-12 0 -22.5 9t-14.5 22z" />
<glyph unicode="w" horiz-adv-x="1292" d="M59 1401q-2 10 7.5 19.5t21.5 9.5h242q12 0 21 -9.5t9 -19.5l50 -699l116 324q4 10 14.5 19.5t22.5 9.5h164q29 0 39 -29l115 -324l51 699q0 10 8 19.5t21 9.5h243q10 0 20.5 -9.5t8.5 -19.5l-111 -1372q0 -10 -7 -19.5t-23 -9.5h-252q-23 0 -29 29l-143 516l-15 102 l-12 -102l-160 -516q-10 -29 -30 -29h-256q-10 0 -18.5 10t-8.5 21z" />
<glyph unicode="x" horiz-adv-x="1101" d="M25 39l354 727l-313 627q-8 16 1 26.5t23 10.5h256q12 0 18.5 -8.5t12.5 -20.5l172 -307l174 307q6 12 12 20.5t19 8.5h256q10 0 22 -10.5t2 -26.5l-313 -627l354 -725q4 -8 4 -15q0 -8 -4 -14q-8 -12 -24 -12h-263q-12 0 -22 9t-16 22l-201 397l-199 -397 q-6 -12 -16 -21.5t-23 -9.5h-262q-11 0 -23 10q-6 5 -6 13q0 7 5 16z" />
<glyph unicode="y" horiz-adv-x="1081" d="M8 1391q-4 7 -4 13.5t4 13.5q8 12 27 12h264q12 0 22.5 -9.5t14.5 -19.5l205 -406l204 406q4 10 14.5 19.5t22.5 9.5h265q18 0 26 -12q4 -7 4 -13.5t-4 -13.5l-381 -734v-628q0 -12 -9 -20.5t-19 -8.5h-246q-10 0 -19.5 8t-9.5 21v628z" />
<glyph unicode="z" horiz-adv-x="1005" d="M63 31v243q0 10 7 21l491 833h-469q-10 0 -19.5 8.5t-9.5 20.5v244q0 12 9.5 20.5t19.5 8.5h821q29 0 29 -29v-244q0 -8 -8 -20l-496 -836h475q29 0 29 -29v-241q0 -12 -8 -21.5t-21 -9.5h-821q-10 0 -19.5 9t-9.5 22z" />
<glyph unicode="|" horiz-adv-x="550" d="M125 -242v1585q0 29 29 29h243q10 0 19.5 -8t9.5 -21v-1585q0 -12 -9 -20t-20 -8h-243q-29 0 -29 28z" />
<glyph unicode="&#xad;" horiz-adv-x="847" d="M63 432v244q0 29 29 29h668q10 0 17 -9.5t7 -19.5v-244q0 -10 -7 -19.5t-17 -9.5h-668q-12 0 -20.5 9.5t-8.5 19.5z" />
<glyph unicode="&#x2000;" horiz-adv-x="717" />
<glyph unicode="&#x2001;" horiz-adv-x="1434" />
<glyph unicode="&#x2002;" horiz-adv-x="717" />
<glyph unicode="&#x2003;" horiz-adv-x="1434" />
<glyph unicode="&#x2004;" horiz-adv-x="478" />
<glyph unicode="&#x2005;" horiz-adv-x="358" />
<glyph unicode="&#x2006;" horiz-adv-x="239" />
<glyph unicode="&#x2007;" horiz-adv-x="239" />
<glyph unicode="&#x2008;" horiz-adv-x="179" />
<glyph unicode="&#x2009;" horiz-adv-x="286" />
<glyph unicode="&#x200a;" horiz-adv-x="79" />
<glyph unicode="&#x2010;" horiz-adv-x="847" d="M63 432v244q0 29 29 29h668q10 0 17 -9.5t7 -19.5v-244q0 -10 -7 -19.5t-17 -9.5h-668q-12 0 -20.5 9.5t-8.5 19.5z" />
<glyph unicode="&#x2011;" horiz-adv-x="847" d="M63 432v244q0 29 29 29h668q10 0 17 -9.5t7 -19.5v-244q0 -10 -7 -19.5t-17 -9.5h-668q-12 0 -20.5 9.5t-8.5 19.5z" />
<glyph unicode="&#x2012;" horiz-adv-x="847" d="M63 432v244q0 29 29 29h668q10 0 17 -9.5t7 -19.5v-244q0 -10 -7 -19.5t-17 -9.5h-668q-12 0 -20.5 9.5t-8.5 19.5z" />
<glyph unicode="&#x2013;" horiz-adv-x="1093" d="M84 436v244q0 25 29 29h872q25 -4 25 -29v-244q0 -23 -25 -26v-2h-872q-12 0 -20.5 9t-8.5 19z" />
<glyph unicode="&#x2014;" horiz-adv-x="1433" d="M84 436v244q0 29 29 29h1212q25 -4 25 -29v-244q0 -23 -25 -26v-2h-1212q-12 0 -20.5 9t-8.5 19z" />
<glyph unicode="&#x2018;" horiz-adv-x="428" d="M63 1124v277q0 12 9.5 20.5t21.5 8.5h242q29 0 29 -29v-387q0 -12 -10.5 -18.5t-26.5 1.5l-236 97q-29 12 -29 30z" />
<glyph unicode="&#x2019;" horiz-adv-x="428" d="M63 1016v385q0 29 29 29h244q29 0 29 -29v-277q0 -18 -29 -30l-234 -97q-18 -8 -28.5 -0.5t-10.5 19.5z" />
<glyph unicode="&#x201c;" horiz-adv-x="804" d="M63 1124v277q0 12 9.5 20.5t21.5 8.5h242q29 0 29 -29v-387q0 -12 -10.5 -18.5t-26.5 1.5l-236 97q-29 12 -29 30zM440 1124v277q0 29 29 29h244q29 0 28 -29v-385q0 -12 -10 -19.5t-29 0.5l-233 97q-29 12 -29 30z" />
<glyph unicode="&#x201d;" horiz-adv-x="802" d="M63 1016v385q0 29 29 29h244q29 0 29 -29v-277q0 -18 -29 -30l-234 -97q-18 -8 -28.5 -0.5t-10.5 19.5zM440 1014v387q0 29 29 29h242q12 0 21 -8.5t9 -20.5v-277q0 -18 -28 -30l-236 -97q-16 -8 -26.5 -2t-10.5 19z" />
<glyph unicode="&#x2022;" horiz-adv-x="847" d="M115 387v541q0 25 17.5 42t41.5 17h500q25 0 42 -17.5t17 -41.5v-541h-2q-4 -23 -19.5 -37t-37.5 -14h-500q-23 0 -38 14.5t-19 36.5h-2z" />
<glyph unicode="&#x202f;" horiz-adv-x="286" />
<glyph unicode="&#x205f;" horiz-adv-x="358" />
<glyph unicode="&#x25fc;" horiz-adv-x="1433" d="M0 0v1434h1434v-1434h-1434z" />
</font>
</defs>
</svg>
